<?xml version="1.0" encoding="UTF-8" standalone="no"?>
<!-- Created with Inkscape (http://www.inkscape.org/) -->

<svg
   xmlns:dc="http://purl.org/dc/elements/1.1/"
   xmlns:cc="http://creativecommons.org/ns#"
   xmlns:rdf="http://www.w3.org/1999/02/22-rdf-syntax-ns#"
   xmlns:svg="http://www.w3.org/2000/svg"
   xmlns="http://www.w3.org/2000/svg"
   xmlns:sodipodi="http://sodipodi.sourceforge.net/DTD/sodipodi-0.dtd"
   xmlns:inkscape="http://www.inkscape.org/namespaces/inkscape"
   width="151.621mm"
   height="25.267412mm"
   viewBox="0 0 151.621 25.267412"
   version="1.1"
   id="svg8"
   inkscape:version="0.92.0 r15299"
   sodipodi:docname="resnet_basic_blocks.svg">
  <defs
     id="defs2">
    <clipPath
       clipPathUnits="userSpaceOnUse"
       id="clipEmfPath1-4">
      <path
         inkscape:connector-curvature="0"
         d="M -5.623937,-5.623937 H 583.95213 V 118.10268 H -5.623937 Z"
         id="path6075" />
    </clipPath>
  </defs>
  <sodipodi:namedview
     id="base"
     pagecolor="#ffffff"
     bordercolor="#666666"
     borderopacity="1.0"
     inkscape:pageopacity="0.0"
     inkscape:pageshadow="2"
     inkscape:zoom="1.4"
     inkscape:cx="311.95048"
     inkscape:cy="-70.822009"
     inkscape:document-units="mm"
     inkscape:current-layer="layer1"
     showgrid="false"
     fit-margin-top="0"
     fit-margin-left="0"
     fit-margin-right="0"
     fit-margin-bottom="0"
     inkscape:window-width="1920"
     inkscape:window-height="1025"
     inkscape:window-x="-8"
     inkscape:window-y="408"
     inkscape:window-maximized="1" />
  <metadata
     id="metadata5">
    <rdf:RDF>
      <cc:Work
         rdf:about="">
        <dc:format>image/svg+xml</dc:format>
        <dc:type
           rdf:resource="http://purl.org/dc/dcmitype/StillImage" />
        <dc:title></dc:title>
      </cc:Work>
    </rdf:RDF>
  </metadata>
  <g
     inkscape:label="Layer 1"
     inkscape:groupmode="layer"
     id="layer1"
     transform="translate(-23.296435,-104.8276)">
    <path
       id="path6081"
       d="m 24.265185,130.04077 h 44.9965 c 0.5115,0 0.9455,-0.4185 0.9455,-0.93 v -15.84101 c 0,-0.5115 -0.434,-0.93 -0.9455,-0.93 h -44.9965 c -0.5115,0 -0.93,0.4185 -0.93,0.93 v 15.84101 c 0,0.5115 0.4185,0.93 0.93,0.93 z"
       style="fill:#ffffff;fill-opacity:1;fill-rule:evenodd;stroke:none;stroke-width:0.26458332"
       inkscape:connector-curvature="0" />
    <path
       id="path6083"
       d="m 24.001685,129.94776 0.279,0.062 h -0.0155 0.279 c 0.0155,0 0.031,0.0155 0.031,0.031 0,0.031 -0.0155,0.0465 -0.031,0.0465 h -0.279 c 0,0 0,0 0,0 l -0.279,-0.062 c -0.0155,0 -0.031,-0.031 -0.031,-0.0465 0,-0.0155 0.031,-0.031 0.0465,-0.031 z m 0.93,0.062 h 0.558 c 0.031,0 0.0465,0.0155 0.0465,0.031 0,0.031 -0.0155,0.0465 -0.0465,0.0465 h -0.558 c -0.0155,0 -0.031,-0.0155 -0.031,-0.0465 0,-0.0155 0.0155,-0.031 0.031,-0.031 z m 0.961,0 h 0.558 c 0.0155,0 0.031,0.0155 0.031,0.031 0,0.031 -0.0155,0.0465 -0.031,0.0465 h -0.558 c -0.0155,0 -0.0465,-0.0155 -0.0465,-0.0465 0,-0.0155 0.031,-0.031 0.0465,-0.031 z m 0.9455,0 h 0.558 c 0.031,0 0.0465,0.0155 0.0465,0.031 0,0.031 -0.0155,0.0465 -0.0465,0.0465 h -0.558 c -0.0155,0 -0.031,-0.0155 -0.031,-0.0465 0,-0.0155 0.0155,-0.031 0.031,-0.031 z m 0.961,0 h 0.558 c 0.0155,0 0.031,0.0155 0.031,0.031 0,0.031 -0.0155,0.0465 -0.031,0.0465 h -0.558 c -0.031,0 -0.0465,-0.0155 -0.0465,-0.0465 0,-0.0155 0.0155,-0.031 0.0465,-0.031 z m 0.9455,0 h 0.558 c 0.031,0 0.0465,0.0155 0.0465,0.031 0,0.031 -0.0155,0.0465 -0.0465,0.0465 h -0.558 c -0.0155,0 -0.031,-0.0155 -0.031,-0.0465 0,-0.0155 0.0155,-0.031 0.031,-0.031 z m 0.961,0 h 0.558 c 0.0155,0 0.031,0.0155 0.031,0.031 0,0.031 -0.0155,0.0465 -0.031,0.0465 h -0.558 c -0.031,0 -0.0465,-0.0155 -0.0465,-0.0465 0,-0.0155 0.0155,-0.031 0.0465,-0.031 z m 0.9455,0 h 0.558 c 0.0155,0 0.0465,0.0155 0.0465,0.031 0,0.031 -0.031,0.0465 -0.0465,0.0465 h -0.558 c -0.0155,0 -0.031,-0.0155 -0.031,-0.0465 0,-0.0155 0.0155,-0.031 0.031,-0.031 z m 0.961,0 h 0.5425 c 0.031,0 0.0465,0.0155 0.0465,0.031 0,0.031 -0.0155,0.0465 -0.0465,0.0465 h -0.5425 c -0.031,0 -0.0465,-0.0155 -0.0465,-0.0465 0,-0.0155 0.0155,-0.031 0.0465,-0.031 z m 0.9455,0 h 0.558 c 0.0155,0 0.031,0.0155 0.031,0.031 0,0.031 -0.0155,0.0465 -0.031,0.0465 h -0.558 c -0.0155,0 -0.0465,-0.0155 -0.0465,-0.0465 0,-0.0155 0.031,-0.031 0.0465,-0.031 z m 0.9455,0 h 0.558 c 0.031,0 0.0465,0.0155 0.0465,0.031 0,0.031 -0.0155,0.0465 -0.0465,0.0465 h -0.558 c -0.0155,0 -0.031,-0.0155 -0.031,-0.0465 0,-0.0155 0.0155,-0.031 0.031,-0.031 z m 0.961,0 h 0.558 c 0.0155,0 0.031,0.0155 0.031,0.031 0,0.031 -0.0155,0.0465 -0.031,0.0465 h -0.558 c -0.031,0 -0.0465,-0.0155 -0.0465,-0.0465 0,-0.0155 0.0155,-0.031 0.0465,-0.031 z m 0.9455,0 h 0.558 c 0.031,0 0.0465,0.0155 0.0465,0.031 0,0.031 -0.0155,0.0465 -0.0465,0.0465 h -0.558 c -0.0155,0 -0.031,-0.0155 -0.031,-0.0465 0,-0.0155 0.0155,-0.031 0.031,-0.031 z m 0.961,0 h 0.558 c 0.0155,0 0.031,0.0155 0.031,0.031 0,0.031 -0.0155,0.0465 -0.031,0.0465 h -0.558 c -0.031,0 -0.0465,-0.0155 -0.0465,-0.0465 0,-0.0155 0.0155,-0.031 0.0465,-0.031 z m 0.9455,0 h 0.558 c 0.0155,0 0.0465,0.0155 0.0465,0.031 0,0.031 -0.031,0.0465 -0.0465,0.0465 h -0.558 c -0.0155,0 -0.031,-0.0155 -0.031,-0.0465 0,-0.0155 0.0155,-0.031 0.031,-0.031 z m 0.961,0 h 0.5425 c 0.031,0 0.0465,0.0155 0.0465,0.031 0,0.031 -0.0155,0.0465 -0.0465,0.0465 h -0.5425 c -0.031,0 -0.0465,-0.0155 -0.0465,-0.0465 0,-0.0155 0.0155,-0.031 0.0465,-0.031 z m 0.9455,0 h 0.558 c 0.0155,0 0.031,0.0155 0.031,0.031 0,0.031 -0.0155,0.0465 -0.031,0.0465 h -0.558 c -0.0155,0 -0.031,-0.0155 -0.031,-0.0465 0,-0.0155 0.0155,-0.031 0.031,-0.031 z m 0.961,0 h 0.5425 c 0.031,0 0.0465,0.0155 0.0465,0.031 0,0.031 -0.0155,0.0465 -0.0465,0.0465 h -0.5425 c -0.031,0 -0.0465,-0.0155 -0.0465,-0.0465 0,-0.0155 0.0155,-0.031 0.0465,-0.031 z m 0.9455,0 h 0.558 c 0.0155,0 0.031,0.0155 0.031,0.031 0,0.031 -0.0155,0.0465 -0.031,0.0465 h -0.558 c -0.0155,0 -0.0465,-0.0155 -0.0465,-0.0465 0,-0.0155 0.031,-0.031 0.0465,-0.031 z m 0.9455,0 h 0.558 c 0.031,0 0.0465,0.0155 0.0465,0.031 0,0.031 -0.0155,0.0465 -0.0465,0.0465 h -0.558 c -0.0155,0 -0.031,-0.0155 -0.031,-0.0465 0,-0.0155 0.0155,-0.031 0.031,-0.031 z m 0.961,0 h 0.558 c 0.0155,0 0.031,0.0155 0.031,0.031 0,0.031 -0.0155,0.0465 -0.031,0.0465 h -0.558 c -0.031,0 -0.0465,-0.0155 -0.0465,-0.0465 0,-0.0155 0.0155,-0.031 0.0465,-0.031 z m 0.9455,0 h 0.558 c 0.031,0 0.0465,0.0155 0.0465,0.031 0,0.031 -0.0155,0.0465 -0.0465,0.0465 h -0.558 c -0.0155,0 -0.031,-0.0155 -0.031,-0.0465 0,-0.0155 0.0155,-0.031 0.031,-0.031 z m 0.961,0 h 0.558 c 0.0155,0 0.031,0.0155 0.031,0.031 0,0.031 -0.0155,0.0465 -0.031,0.0465 h -0.558 c -0.031,0 -0.0465,-0.0155 -0.0465,-0.0465 0,-0.0155 0.0155,-0.031 0.0465,-0.031 z m 0.9455,0 h 0.558 c 0.0155,0 0.0465,0.0155 0.0465,0.031 0,0.031 -0.031,0.0465 -0.0465,0.0465 h -0.558 c -0.0155,0 -0.031,-0.0155 -0.031,-0.0465 0,-0.0155 0.0155,-0.031 0.031,-0.031 z m 0.961,0 h 0.5425 c 0.031,0 0.0465,0.0155 0.0465,0.031 0,0.031 -0.0155,0.0465 -0.0465,0.0465 h -0.5425 c -0.031,0 -0.0465,-0.0155 -0.0465,-0.0465 0,-0.0155 0.0155,-0.031 0.0465,-0.031 z m 0.9455,0 h 0.558 c 0.0155,0 0.031,0.0155 0.031,0.031 0,0.031 -0.0155,0.0465 -0.031,0.0465 h -0.558 c -0.0155,0 -0.0465,-0.0155 -0.0465,-0.0465 0,-0.0155 0.031,-0.031 0.0465,-0.031 z m 0.9455,0 h 0.558 c 0.031,0 0.0465,0.0155 0.0465,0.031 0,0.031 -0.0155,0.0465 -0.0465,0.0465 h -0.558 c -0.0155,0 -0.031,-0.0155 -0.031,-0.0465 0,-0.0155 0.0155,-0.031 0.031,-0.031 z m 0.961,0 h 0.558 c 0.0155,0 0.031,0.0155 0.031,0.031 0,0.031 -0.0155,0.0465 -0.031,0.0465 h -0.558 c -0.0155,0 -0.0465,-0.0155 -0.0465,-0.0465 0,-0.0155 0.031,-0.031 0.0465,-0.031 z m 0.9455,0 h 0.558 c 0.031,0 0.0465,0.0155 0.0465,0.031 0,0.031 -0.0155,0.0465 -0.0465,0.0465 h -0.558 c -0.0155,0 -0.031,-0.0155 -0.031,-0.0465 0,-0.0155 0.0155,-0.031 0.031,-0.031 z m 0.961,0 h 0.558 c 0.0155,0 0.031,0.0155 0.031,0.031 0,0.031 -0.0155,0.0465 -0.031,0.0465 h -0.558 c -0.031,0 -0.0465,-0.0155 -0.0465,-0.0465 0,-0.0155 0.0155,-0.031 0.0465,-0.031 z m 0.9455,0 h 0.558 c 0.031,0 0.0465,0.0155 0.0465,0.031 0,0.031 -0.0155,0.0465 -0.0465,0.0465 h -0.558 c -0.0155,0 -0.031,-0.0155 -0.031,-0.0465 0,-0.0155 0.0155,-0.031 0.031,-0.031 z m 0.961,0 h 0.558 c 0.0155,0 0.031,0.0155 0.031,0.031 0,0.031 -0.0155,0.0465 -0.031,0.0465 h -0.558 c -0.031,0 -0.0465,-0.0155 -0.0465,-0.0465 0,-0.0155 0.0155,-0.031 0.0465,-0.031 z m 0.9455,0 h 0.558 c 0.0155,0 0.0465,0.0155 0.0465,0.031 0,0.031 -0.031,0.0465 -0.0465,0.0465 h -0.558 c -0.0155,0 -0.031,-0.0155 -0.031,-0.0465 0,-0.0155 0.0155,-0.031 0.031,-0.031 z m 0.961,0 h 0.5425 c 0.031,0 0.0465,0.0155 0.0465,0.031 0,0.031 -0.0155,0.0465 -0.0465,0.0465 h -0.5425 c -0.031,0 -0.0465,-0.0155 -0.0465,-0.0465 0,-0.0155 0.0155,-0.031 0.0465,-0.031 z m 0.9455,0 h 0.558 c 0.0155,0 0.031,0.0155 0.031,0.031 0,0.031 -0.0155,0.0465 -0.031,0.0465 h -0.558 c -0.0155,0 -0.0465,-0.0155 -0.0465,-0.0465 0,-0.0155 0.031,-0.031 0.0465,-0.031 z m 0.9455,0 h 0.558 c 0.031,0 0.0465,0.0155 0.0465,0.031 0,0.031 -0.0155,0.0465 -0.0465,0.0465 h -0.558 c -0.0155,0 -0.031,-0.0155 -0.031,-0.0465 0,-0.0155 0.0155,-0.031 0.031,-0.031 z m 0.961,0 h 0.558 c 0.0155,0 0.031,0.0155 0.031,0.031 0,0.031 -0.0155,0.0465 -0.031,0.0465 h -0.558 c -0.031,0 -0.0465,-0.0155 -0.0465,-0.0465 0,-0.0155 0.0155,-0.031 0.0465,-0.031 z m 0.9455,0 h 0.558 c 0.031,0 0.0465,0.0155 0.0465,0.031 0,0.031 -0.0155,0.0465 -0.0465,0.0465 h -0.558 c -0.0155,0 -0.031,-0.0155 -0.031,-0.0465 0,-0.0155 0.0155,-0.031 0.031,-0.031 z m 0.961,0 h 0.558 c 0.0155,0 0.031,0.0155 0.031,0.031 0,0.031 -0.0155,0.0465 -0.031,0.0465 h -0.558 c -0.031,0 -0.0465,-0.0155 -0.0465,-0.0465 0,-0.0155 0.0155,-0.031 0.0465,-0.031 z m 0.9455,0 h 0.558 c 0.0155,0 0.0465,0.0155 0.0465,0.031 0,0.031 -0.031,0.0465 -0.0465,0.0465 h -0.558 c -0.0155,0 -0.031,-0.0155 -0.031,-0.0465 0,-0.0155 0.0155,-0.031 0.031,-0.031 z m 0.961,0 h 0.5425 c 0.031,0 0.0465,0.0155 0.0465,0.031 0,0.031 -0.0155,0.0465 -0.0465,0.0465 h -0.5425 c -0.031,0 -0.0465,-0.0155 -0.0465,-0.0465 0,-0.0155 0.0155,-0.031 0.0465,-0.031 z m 0.9455,0 h 0.558 c 0.0155,0 0.031,0.0155 0.031,0.031 0,0.031 -0.0155,0.0465 -0.031,0.0465 h -0.558 c -0.0155,0 -0.031,-0.0155 -0.031,-0.0465 0,-0.0155 0.0155,-0.031 0.031,-0.031 z m 0.961,0 h 0.5425 c 0.031,0 0.0465,0.0155 0.0465,0.031 0,0.031 -0.0155,0.0465 -0.0465,0.0465 h -0.5425 c -0.031,0 -0.0465,-0.0155 -0.0465,-0.0465 0,-0.0155 0.0155,-0.031 0.0465,-0.031 z m 0.9455,0 h 0.558 c 0.0155,0 0.031,0.0155 0.031,0.031 0,0.031 -0.0155,0.0465 -0.031,0.0465 h -0.558 c -0.0155,0 -0.0465,-0.0155 -0.0465,-0.0465 0,-0.0155 0.031,-0.031 0.0465,-0.031 z m 0.9455,0 h 0.558 c 0.031,0 0.0465,0.0155 0.0465,0.031 0,0.031 -0.0155,0.0465 -0.0465,0.0465 h -0.558 c -0.0155,0 -0.031,-0.0155 -0.031,-0.0465 0,-0.0155 0.0155,-0.031 0.031,-0.031 z m 0.961,0 h 0.558 c 0.0155,0 0.031,0.0155 0.031,0.031 0,0.031 -0.0155,0.0465 -0.031,0.0465 h -0.558 c -0.031,0 -0.0465,-0.0155 -0.0465,-0.0465 0,-0.0155 0.0155,-0.031 0.0465,-0.031 z m 0.9455,0 h 0.558 c 0.031,0 0.0465,0.0155 0.0465,0.031 0,0.031 -0.0155,0.0465 -0.0465,0.0465 h -0.558 c -0.0155,0 -0.031,-0.0155 -0.031,-0.0465 0,-0.0155 0.0155,-0.031 0.031,-0.031 z m 0.961,0 h 0.5115 v 0 h 0.031 c 0.0155,-0.0155 0.0465,0 0.0465,0.0155 0,0.031 -0.0155,0.0465 -0.031,0.062 h -0.031 c 0,0 0,0 -0.0155,0 h -0.5115 c -0.031,0 -0.0465,-0.0155 -0.0465,-0.0465 0,-0.0155 0.0155,-0.031 0.0465,-0.031 z m 0.9145,-0.1085 0.248,-0.1705 -0.0155,0.0155 0.1395,-0.2015 c 0.0155,-0.0155 0.0465,-0.031 0.062,-0.0155 0.0155,0.0155 0.0155,0.031 0.0155,0.062 l -0.1395,0.2015 c -0.0155,0 -0.0155,0 -0.0155,0.0155 l -0.2635,0.15501 c -0.0155,0.0155 -0.031,0.0155 -0.0465,0 -0.0155,-0.031 -0.0155,-0.0465 0.0155,-0.062 z m 0.496,-0.71301 0.0155,-0.0775 v 0 -0.48051 c 0,-0.0155 0.0155,-0.031 0.031,-0.031 0.031,0 0.0465,0.0155 0.0465,0.031 v 0.48051 c 0,0.0155 0,0.0155 0,0.0155 l -0.0155,0.0775 c 0,0.0155 -0.031,0.031 -0.0465,0.031 -0.0155,-0.0155 -0.031,-0.031 -0.031,-0.0465 z m 0.0155,-0.94549 v -0.558 c 0,-0.0155 0.0155,-0.0465 0.031,-0.0465 0.031,0 0.0465,0.031 0.0465,0.0465 v 0.558 c 0,0.0155 -0.0155,0.031 -0.0465,0.031 -0.0155,0 -0.031,-0.0155 -0.031,-0.031 z m 0,-0.96101 v -0.54249 c 0,-0.031 0.0155,-0.0465 0.031,-0.0465 0.031,0 0.0465,0.0155 0.0465,0.0465 v 0.54249 c 0,0.031 -0.0155,0.0465 -0.0465,0.0465 -0.0155,0 -0.031,-0.0155 -0.031,-0.0465 z m 0,-0.9455 v -0.558 c 0,-0.0155 0.0155,-0.031 0.031,-0.031 0.031,0 0.0465,0.0155 0.0465,0.031 v 0.558 c 0,0.0155 -0.0155,0.0465 -0.0465,0.0465 -0.0155,0 -0.031,-0.031 -0.031,-0.0465 z m 0,-0.9455 v -0.558 c 0,-0.031 0.0155,-0.0465 0.031,-0.0465 0.031,0 0.0465,0.0155 0.0465,0.0465 v 0.558 c 0,0.0155 -0.0155,0.031 -0.0465,0.031 -0.0155,0 -0.031,-0.0155 -0.031,-0.031 z m 0,-0.961 v -0.558 c 0,-0.0155 0.0155,-0.031 0.031,-0.031 0.031,0 0.0465,0.0155 0.0465,0.031 v 0.558 c 0,0.0155 -0.0155,0.0465 -0.0465,0.0465 -0.0155,0 -0.031,-0.031 -0.031,-0.0465 z m 0,-0.9455 v -0.558 c 0,-0.031 0.0155,-0.0465 0.031,-0.0465 0.031,0 0.0465,0.0155 0.0465,0.0465 v 0.558 c 0,0.0155 -0.0155,0.031 -0.0465,0.031 -0.0155,0 -0.031,-0.0155 -0.031,-0.031 z m 0,-0.961 v -0.558 c 0,-0.0155 0.0155,-0.031 0.031,-0.031 0.031,0 0.0465,0.0155 0.0465,0.031 v 0.558 c 0,0.031 -0.0155,0.0465 -0.0465,0.0465 -0.0155,0 -0.031,-0.0155 -0.031,-0.0465 z m 0,-0.9455 v -0.558 c 0,-0.031 0.0155,-0.0465 0.031,-0.0465 0.031,0 0.0465,0.0155 0.0465,0.0465 v 0.558 c 0,0.0155 -0.0155,0.031 -0.0465,0.031 -0.0155,0 -0.031,-0.0155 -0.031,-0.031 z m 0,-0.961 v -0.558 c 0,-0.0155 0.0155,-0.031 0.031,-0.031 0.031,0 0.0465,0.0155 0.0465,0.031 v 0.558 c 0,0.031 -0.0155,0.0465 -0.0465,0.0465 -0.0155,0 -0.031,-0.0155 -0.031,-0.0465 z m 0,-0.9455 v -0.558 c 0,-0.0155 0.0155,-0.0465 0.031,-0.0465 0.031,0 0.0465,0.031 0.0465,0.0465 v 0.558 c 0,0.0155 -0.0155,0.031 -0.0465,0.031 -0.0155,0 -0.031,-0.0155 -0.031,-0.031 z m 0,-0.961 v -0.5425 c 0,-0.031 0.0155,-0.0465 0.031,-0.0465 0.031,0 0.0465,0.0155 0.0465,0.0465 v 0.5425 c 0,0.031 -0.0155,0.0465 -0.0465,0.0465 -0.0155,0 -0.031,-0.0155 -0.031,-0.0465 z m 0,-0.9455 v -0.558 c 0,-0.0155 0.0155,-0.031 0.031,-0.031 0.031,0 0.0465,0.0155 0.0465,0.031 v 0.558 c 0,0.0155 -0.0155,0.0465 -0.0465,0.0465 -0.0155,0 -0.031,-0.031 -0.031,-0.0465 z m 0,-0.9455 v -0.558 c 0,-0.031 0.0155,-0.0465 0.031,-0.0465 0.031,0 0.0465,0.0155 0.0465,0.0465 v 0.558 c 0,0.0155 -0.0155,0.031 -0.0465,0.031 -0.0155,0 -0.031,-0.0155 -0.031,-0.031 z m 0,-0.961 v -0.558 c 0,-0.0155 0.0155,-0.031 0.031,-0.031 0.031,0 0.0465,0.0155 0.0465,0.031 v 0.558 c 0,0.031 -0.0155,0.0465 -0.0465,0.0465 -0.0155,0 -0.031,-0.0155 -0.031,-0.0465 z m 0,-0.9455 v -0.558 c 0,-0.031 0.0155,-0.0465 0.031,-0.0465 0.031,0 0.0465,0.0155 0.0465,0.0465 v 0.558 c 0,0.0155 -0.0155,0.031 -0.0465,0.031 -0.0155,0 -0.031,-0.0155 -0.031,-0.031 z m 0,-0.961 v -0.558 c 0,-0.0155 0.0155,-0.031 0.031,-0.031 0.031,0 0.0465,0.0155 0.0465,0.031 v 0.558 c 0,0.031 -0.0155,0.0465 -0.0465,0.0465 -0.0155,0 -0.031,-0.0155 -0.031,-0.0465 z m -0.062,-0.93 -0.0155,-0.093 v 0.0155 l -0.2015,-0.2945 0.0155,0.0155 -0.093,-0.062 c -0.0155,-0.0155 -0.0155,-0.0465 -0.0155,-0.062 0.0155,-0.0155 0.0465,-0.0155 0.062,0 l 0.093,0.0465 c 0,0.0155 0,0.0155 0.0155,0.0155 l 0.2015,0.2945 c 0,0 0,0.0155 0,0.0155 l 0.0155,0.093 c 0.0155,0.0155 0,0.031 -0.031,0.0465 -0.0155,0 -0.031,-0.0155 -0.0465,-0.031 z m -0.6355,-0.589 -0.217,-0.0465 v 0 h -0.3255 c -0.0155,0 -0.031,-0.0155 -0.031,-0.0465 0,-0.0155 0.0155,-0.031 0.031,-0.031 h 0.3255 c 0.0155,0 0.0155,0 0.0155,0 l 0.2325,0.0465 c 0.0155,0 0.031,0.031 0.0155,0.0465 0,0.031 -0.0155,0.031 -0.0465,0.031 z m -0.93,-0.0465 h -0.558 c -0.0155,0 -0.0465,-0.0155 -0.0465,-0.0465 0,-0.0155 0.031,-0.031 0.0465,-0.031 h 0.558 c 0.0155,0 0.031,0.0155 0.031,0.031 0,0.031 -0.0155,0.0465 -0.031,0.0465 z m -0.961,0 h -0.5425 c -0.031,0 -0.0465,-0.0155 -0.0465,-0.0465 0,-0.0155 0.0155,-0.031 0.0465,-0.031 h 0.5425 c 0.031,0 0.0465,0.0155 0.0465,0.031 0,0.031 -0.0155,0.0465 -0.0465,0.0465 z m -0.9455,0 h -0.558 c -0.0155,0 -0.031,-0.0155 -0.031,-0.0465 0,-0.0155 0.0155,-0.031 0.031,-0.031 h 0.558 c 0.0155,0 0.0465,0.0155 0.0465,0.031 0,0.031 -0.031,0.0465 -0.0465,0.0465 z m -0.9455,0 h -0.558 c -0.031,0 -0.0465,-0.0155 -0.0465,-0.0465 0,-0.0155 0.0155,-0.031 0.0465,-0.031 h 0.558 c 0.0155,0 0.031,0.0155 0.031,0.031 0,0.031 -0.0155,0.0465 -0.031,0.0465 z m -0.961,0 h -0.558 c -0.0155,0 -0.031,-0.0155 -0.031,-0.0465 0,-0.0155 0.0155,-0.031 0.031,-0.031 h 0.558 c 0.031,0 0.0465,0.0155 0.0465,0.031 0,0.031 -0.0155,0.0465 -0.0465,0.0465 z m -0.9455,0 h -0.558 c -0.031,0 -0.0465,-0.0155 -0.0465,-0.0465 0,-0.0155 0.0155,-0.031 0.0465,-0.031 h 0.558 c 0.0155,0 0.031,0.0155 0.031,0.031 0,0.031 -0.0155,0.0465 -0.031,0.0465 z m -0.961,0 h -0.558 c -0.0155,0 -0.031,-0.0155 -0.031,-0.0465 0,-0.0155 0.0155,-0.031 0.031,-0.031 h 0.558 c 0.031,0 0.0465,0.0155 0.0465,0.031 0,0.031 -0.0155,0.0465 -0.0465,0.0465 z m -0.9455,0 h -0.558 c -0.0155,0 -0.0465,-0.0155 -0.0465,-0.0465 0,-0.0155 0.031,-0.031 0.0465,-0.031 h 0.558 c 0.0155,0 0.031,0.0155 0.031,0.031 0,0.031 -0.0155,0.0465 -0.031,0.0465 z m -0.961,0 h -0.5425 c -0.031,0 -0.0465,-0.0155 -0.0465,-0.0465 0,-0.0155 0.0155,-0.031 0.0465,-0.031 h 0.5425 c 0.031,0 0.0465,0.0155 0.0465,0.031 0,0.031 -0.0155,0.0465 -0.0465,0.0465 z m -0.9455,0 h -0.558 c -0.0155,0 -0.031,-0.0155 -0.031,-0.0465 0,-0.0155 0.0155,-0.031 0.031,-0.031 h 0.558 c 0.0155,0 0.031,0.0155 0.031,0.031 0,0.031 -0.0155,0.0465 -0.031,0.0465 z m -0.961,0 h -0.5425 c -0.031,0 -0.0465,-0.0155 -0.0465,-0.0465 0,-0.0155 0.0155,-0.031 0.0465,-0.031 h 0.5425 c 0.031,0 0.0465,0.0155 0.0465,0.031 0,0.031 -0.0155,0.0465 -0.0465,0.0465 z m -0.9455,0 h -0.558 c -0.0155,0 -0.031,-0.0155 -0.031,-0.0465 0,-0.0155 0.0155,-0.031 0.031,-0.031 h 0.558 c 0.0155,0 0.0465,0.0155 0.0465,0.031 0,0.031 -0.031,0.0465 -0.0465,0.0465 z m -0.9455,0 h -0.558 c -0.031,0 -0.0465,-0.0155 -0.0465,-0.0465 0,-0.0155 0.0155,-0.031 0.0465,-0.031 h 0.558 c 0.0155,0 0.031,0.0155 0.031,0.031 0,0.031 -0.0155,0.0465 -0.031,0.0465 z m -0.961,0 h -0.558 c -0.0155,0 -0.031,-0.0155 -0.031,-0.0465 0,-0.0155 0.0155,-0.031 0.031,-0.031 h 0.558 c 0.031,0 0.0465,0.0155 0.0465,0.031 0,0.031 -0.0155,0.0465 -0.0465,0.0465 z m -0.9455,0 h -0.558 c -0.031,0 -0.0465,-0.0155 -0.0465,-0.0465 0,-0.0155 0.0155,-0.031 0.0465,-0.031 h 0.558 c 0.0155,0 0.031,0.0155 0.031,0.031 0,0.031 -0.0155,0.0465 -0.031,0.0465 z m -0.961,0 h -0.558 c -0.0155,0 -0.031,-0.0155 -0.031,-0.0465 0,-0.0155 0.0155,-0.031 0.031,-0.031 h 0.558 c 0.031,0 0.0465,0.0155 0.0465,0.031 0,0.031 -0.0155,0.0465 -0.0465,0.0465 z m -0.9455,0 h -0.558 c -0.0155,0 -0.0465,-0.0155 -0.0465,-0.0465 0,-0.0155 0.031,-0.031 0.0465,-0.031 h 0.558 c 0.0155,0 0.031,0.0155 0.031,0.031 0,0.031 -0.0155,0.0465 -0.031,0.0465 z m -0.961,0 h -0.5425 c -0.031,0 -0.0465,-0.0155 -0.0465,-0.0465 0,-0.0155 0.0155,-0.031 0.0465,-0.031 h 0.5425 c 0.031,0 0.0465,0.0155 0.0465,0.031 0,0.031 -0.0155,0.0465 -0.0465,0.0465 z m -0.9455,0 h -0.558 c -0.0155,0 -0.031,-0.0155 -0.031,-0.0465 0,-0.0155 0.0155,-0.031 0.031,-0.031 h 0.558 c 0.0155,0 0.0465,0.0155 0.0465,0.031 0,0.031 -0.031,0.0465 -0.0465,0.0465 z m -0.9455,0 h -0.558 c -0.031,0 -0.0465,-0.0155 -0.0465,-0.0465 0,-0.0155 0.0155,-0.031 0.0465,-0.031 h 0.558 c 0.0155,0 0.031,0.0155 0.031,0.031 0,0.031 -0.0155,0.0465 -0.031,0.0465 z m -0.961,0 h -0.558 c -0.0155,0 -0.031,-0.0155 -0.031,-0.0465 0,-0.0155 0.0155,-0.031 0.031,-0.031 h 0.558 c 0.0155,0 0.0465,0.0155 0.0465,0.031 0,0.031 -0.031,0.0465 -0.0465,0.0465 z m -0.9455,0 h -0.558 c -0.031,0 -0.0465,-0.0155 -0.0465,-0.0465 0,-0.0155 0.0155,-0.031 0.0465,-0.031 h 0.558 c 0.0155,0 0.031,0.0155 0.031,0.031 0,0.031 -0.0155,0.0465 -0.031,0.0465 z m -0.961,0 h -0.558 c -0.0155,0 -0.031,-0.0155 -0.031,-0.0465 0,-0.0155 0.0155,-0.031 0.031,-0.031 h 0.558 c 0.031,0 0.0465,0.0155 0.0465,0.031 0,0.031 -0.0155,0.0465 -0.0465,0.0465 z m -0.9455,0 h -0.558 c -0.031,0 -0.0465,-0.0155 -0.0465,-0.0465 0,-0.0155 0.0155,-0.031 0.0465,-0.031 h 0.558 c 0.0155,0 0.031,0.0155 0.031,0.031 0,0.031 -0.0155,0.0465 -0.031,0.0465 z m -0.961,0 h -0.558 c -0.0155,0 -0.031,-0.0155 -0.031,-0.0465 0,-0.0155 0.0155,-0.031 0.031,-0.031 h 0.558 c 0.031,0 0.0465,0.0155 0.0465,0.031 0,0.031 -0.0155,0.0465 -0.0465,0.0465 z m -0.9455,0 h -0.558 c -0.0155,0 -0.0465,-0.0155 -0.0465,-0.0465 0,-0.0155 0.031,-0.031 0.0465,-0.031 h 0.558 c 0.0155,0 0.031,0.0155 0.031,0.031 0,0.031 -0.0155,0.0465 -0.031,0.0465 z m -0.961,0 h -0.5425 c -0.031,0 -0.0465,-0.0155 -0.0465,-0.0465 0,-0.0155 0.0155,-0.031 0.0465,-0.031 h 0.5425 c 0.031,0 0.0465,0.0155 0.0465,0.031 0,0.031 -0.0155,0.0465 -0.0465,0.0465 z m -0.9455,0 h -0.558 c -0.0155,0 -0.031,-0.0155 -0.031,-0.0465 0,-0.0155 0.0155,-0.031 0.031,-0.031 h 0.558 c 0.0155,0 0.0465,0.0155 0.0465,0.031 0,0.031 -0.031,0.0465 -0.0465,0.0465 z m -0.9455,0 h -0.558 c -0.031,0 -0.0465,-0.0155 -0.0465,-0.0465 0,-0.0155 0.0155,-0.031 0.0465,-0.031 h 0.558 c 0.0155,0 0.031,0.0155 0.031,0.031 0,0.031 -0.0155,0.0465 -0.031,0.0465 z m -0.961,0 h -0.558 c -0.0155,0 -0.031,-0.0155 -0.031,-0.0465 0,-0.0155 0.0155,-0.031 0.031,-0.031 h 0.558 c 0.031,0 0.0465,0.0155 0.0465,0.031 0,0.031 -0.0155,0.0465 -0.0465,0.0465 z m -0.9455,0 h -0.558 c -0.031,0 -0.0465,-0.0155 -0.0465,-0.0465 0,-0.0155 0.0155,-0.031 0.0465,-0.031 h 0.558 c 0.0155,0 0.031,0.0155 0.031,0.031 0,0.031 -0.0155,0.0465 -0.031,0.0465 z m -0.961,0 h -0.558 c -0.0155,0 -0.031,-0.0155 -0.031,-0.0465 0,-0.0155 0.0155,-0.031 0.031,-0.031 h 0.558 c 0.031,0 0.0465,0.0155 0.0465,0.031 0,0.031 -0.0155,0.0465 -0.0465,0.0465 z m -0.9455,0 h -0.558 c -0.0155,0 -0.0465,-0.0155 -0.0465,-0.0465 0,-0.0155 0.031,-0.031 0.0465,-0.031 h 0.558 c 0.0155,0 0.031,0.0155 0.031,0.031 0,0.031 -0.0155,0.0465 -0.031,0.0465 z m -0.961,0 h -0.5425 c -0.031,0 -0.0465,-0.0155 -0.0465,-0.0465 0,-0.0155 0.0155,-0.031 0.0465,-0.031 h 0.5425 c 0.031,0 0.0465,0.0155 0.0465,0.031 0,0.031 -0.0155,0.0465 -0.0465,0.0465 z m -0.9455,0 h -0.558 c -0.0155,0 -0.031,-0.0155 -0.031,-0.0465 0,-0.0155 0.0155,-0.031 0.031,-0.031 h 0.558 c 0.0155,0 0.031,0.0155 0.031,0.031 0,0.031 -0.0155,0.0465 -0.031,0.0465 z m -0.961,0 h -0.5425 c -0.031,0 -0.0465,-0.0155 -0.0465,-0.0465 0,-0.0155 0.0155,-0.031 0.0465,-0.031 h 0.5425 c 0.031,0 0.0465,0.0155 0.0465,0.031 0,0.031 -0.0155,0.0465 -0.0465,0.0465 z m -0.9455,0 h -0.558 c -0.0155,0 -0.031,-0.0155 -0.031,-0.0465 0,-0.0155 0.0155,-0.031 0.031,-0.031 h 0.558 c 0.0155,0 0.0465,0.0155 0.0465,0.031 0,0.031 -0.031,0.0465 -0.0465,0.0465 z m -0.9455,0 h -0.558 c -0.031,0 -0.0465,-0.0155 -0.0465,-0.0465 0,-0.0155 0.0155,-0.031 0.0465,-0.031 h 0.558 c 0.0155,0 0.031,0.0155 0.031,0.031 0,0.031 -0.0155,0.0465 -0.031,0.0465 z m -0.961,0 h -0.558 c -0.0155,0 -0.031,-0.0155 -0.031,-0.0465 0,-0.0155 0.0155,-0.031 0.031,-0.031 h 0.558 c 0.031,0 0.0465,0.0155 0.0465,0.031 0,0.031 -0.0155,0.0465 -0.0465,0.0465 z m -0.9455,0 h -0.558 c -0.031,0 -0.0465,-0.0155 -0.0465,-0.0465 0,-0.0155 0.0155,-0.031 0.0465,-0.031 h 0.558 c 0.0155,0 0.031,0.0155 0.031,0.031 0,0.031 -0.0155,0.0465 -0.031,0.0465 z m -0.961,0 h -0.558 c -0.0155,0 -0.031,-0.0155 -0.031,-0.0465 0,-0.0155 0.0155,-0.031 0.031,-0.031 h 0.558 c 0.031,0 0.0465,0.0155 0.0465,0.031 0,0.031 -0.0155,0.0465 -0.0465,0.0465 z m -0.9455,0 h -0.558 c -0.0155,0 -0.0465,-0.0155 -0.0465,-0.0465 0,-0.0155 0.031,-0.031 0.0465,-0.031 h 0.558 c 0.0155,0 0.031,0.0155 0.031,0.031 0,0.031 -0.0155,0.0465 -0.031,0.0465 z m -0.961,0 h -0.5425 c -0.031,0 -0.0465,-0.0155 -0.0465,-0.0465 0,-0.0155 0.0155,-0.031 0.0465,-0.031 h 0.5425 c 0.031,0 0.0465,0.0155 0.0465,0.031 0,0.031 -0.0155,0.0465 -0.0465,0.0465 z m -0.9455,0 h -0.558 c -0.0155,0 -0.031,-0.0155 -0.031,-0.0465 0,-0.0155 0.0155,-0.031 0.031,-0.031 h 0.558 c 0.0155,0 0.0465,0.0155 0.0465,0.031 0,0.031 -0.031,0.0465 -0.0465,0.0465 z m -0.9455,0 h -0.558 c -0.031,0 -0.0465,-0.0155 -0.0465,-0.0465 0,-0.0155 0.0155,-0.031 0.0465,-0.031 h 0.558 c 0.0155,0 0.031,0.0155 0.031,0.031 0,0.031 -0.0155,0.0465 -0.031,0.0465 z m -0.961,0 h -0.558 c -0.0155,0 -0.031,-0.0155 -0.031,-0.0465 0,-0.0155 0.0155,-0.031 0.031,-0.031 h 0.558 c 0.0155,0 0.0465,0.0155 0.0465,0.031 0,0.031 -0.031,0.0465 -0.0465,0.0465 z m -0.9455,0 h -0.4805 0.0155 l -0.093,0.0155 c -0.0155,0 -0.031,0 -0.0465,-0.031 0,-0.0155 0.0155,-0.0465 0.031,-0.0465 l 0.093,-0.0155 c 0,0 0,0 0,0 h 0.4805 c 0.0155,0 0.031,0.0155 0.031,0.031 0,0.031 -0.0155,0.0465 -0.031,0.0465 z m -0.899,0.1395 -0.2015,0.1395 0.0155,-0.0155 -0.186,0.2635 c -0.0155,0.0155 -0.031,0.0155 -0.062,0.0155 -0.0155,-0.0155 -0.0155,-0.0465 0,-0.062 l 0.1705,-0.2635 c 0.0155,0 0.0155,0 0.0155,-0.0155 l 0.2015,-0.124 c 0.0155,-0.0155 0.031,-0.0155 0.0465,0 0.0155,0.031 0.0155,0.0465 0,0.062 z m -0.465,0.7595 v 0 -0.0155 0.558 c 0,0.0155 -0.0155,0.031 -0.0465,0.031 -0.0155,0 -0.031,-0.0155 -0.031,-0.031 v -0.558 c 0,0 0,0 0,0 v 0 c 0,-0.031 0.031,-0.0465 0.0465,-0.031 0.0155,0 0.031,0.0155 0.031,0.0465 z m 0,0.9455 v 0.5425 c 0,0.031 -0.0155,0.0465 -0.0465,0.0465 -0.0155,0 -0.031,-0.0155 -0.031,-0.0465 v -0.5425 c 0,-0.031 0.0155,-0.0465 0.031,-0.0465 0.031,0 0.0465,0.0155 0.0465,0.0465 z m 0,0.9455 v 0.558 c 0,0.0155 -0.0155,0.031 -0.0465,0.031 -0.0155,0 -0.031,-0.0155 -0.031,-0.031 v -0.558 c 0,-0.0155 0.0155,-0.0465 0.031,-0.0465 0.031,0 0.0465,0.031 0.0465,0.0465 z m 0,0.9455 v 0.558 c 0,0.031 -0.0155,0.0465 -0.0465,0.0465 -0.0155,0 -0.031,-0.0155 -0.031,-0.0465 v -0.558 c 0,-0.0155 0.0155,-0.031 0.031,-0.031 0.031,0 0.0465,0.0155 0.0465,0.031 z m 0,0.961 v 0.558 c 0,0.0155 -0.0155,0.031 -0.0465,0.031 -0.0155,0 -0.031,-0.0155 -0.031,-0.031 v -0.558 c 0,-0.031 0.0155,-0.0465 0.031,-0.0465 0.031,0 0.0465,0.0155 0.0465,0.0465 z m 0,0.9455 v 0.558 c 0,0.031 -0.0155,0.0465 -0.0465,0.0465 -0.0155,0 -0.031,-0.0155 -0.031,-0.0465 v -0.558 c 0,-0.0155 0.0155,-0.031 0.031,-0.031 0.031,0 0.0465,0.0155 0.0465,0.031 z m 0,0.961 v 0.558 c 0,0.0155 -0.0155,0.031 -0.0465,0.031 -0.0155,0 -0.031,-0.0155 -0.031,-0.031 v -0.558 c 0,-0.031 0.0155,-0.0465 0.031,-0.0465 0.031,0 0.0465,0.0155 0.0465,0.0465 z m 0,0.9455 v 0.558 c 0,0.0155 -0.0155,0.0465 -0.0465,0.0465 -0.0155,0 -0.031,-0.031 -0.031,-0.0465 v -0.558 c 0,-0.0155 0.0155,-0.031 0.031,-0.031 0.031,0 0.0465,0.0155 0.0465,0.031 z m 0,0.961 v 0.5425 c 0,0.031 -0.0155,0.0465 -0.0465,0.0465 -0.0155,0 -0.031,-0.0155 -0.031,-0.0465 v -0.5425 c 0,-0.031 0.0155,-0.0465 0.031,-0.0465 0.031,0 0.0465,0.0155 0.0465,0.0465 z m 0,0.9455 v 0.558 c 0,0.0155 -0.0155,0.031 -0.0465,0.031 -0.0155,0 -0.031,-0.0155 -0.031,-0.031 v -0.558 c 0,-0.0155 0.0155,-0.0465 0.031,-0.0465 0.031,0 0.0465,0.031 0.0465,0.0465 z m 0,0.9455 v 0.558 c 0,0.031 -0.0155,0.0465 -0.0465,0.0465 -0.0155,0 -0.031,-0.0155 -0.031,-0.0465 v -0.558 c 0,-0.0155 0.0155,-0.031 0.031,-0.031 0.031,0 0.0465,0.0155 0.0465,0.031 z m 0,0.961 v 0.558 c 0,0.0155 -0.0155,0.031 -0.0465,0.031 -0.0155,0 -0.031,-0.0155 -0.031,-0.031 v -0.558 c 0,-0.0155 0.0155,-0.0465 0.031,-0.0465 0.031,0 0.0465,0.031 0.0465,0.0465 z m 0,0.9455 v 0.558 c 0,0.031 -0.0155,0.0465 -0.0465,0.0465 -0.0155,0 -0.031,-0.0155 -0.031,-0.0465 v -0.558 c 0,-0.0155 0.0155,-0.031 0.031,-0.031 0.031,0 0.0465,0.0155 0.0465,0.031 z m 0,0.961 v 0.558 c 0,0.0155 -0.0155,0.031 -0.0465,0.031 -0.0155,0 -0.031,-0.0155 -0.031,-0.031 v -0.558 c 0,-0.031 0.0155,-0.0465 0.031,-0.0465 0.031,0 0.0465,0.0155 0.0465,0.0465 z m 0,0.9455 v 0.558 c 0,0.0155 -0.0155,0.0465 -0.0465,0.0465 -0.0155,0 -0.031,-0.031 -0.031,-0.0465 v -0.558 c 0,-0.0155 0.0155,-0.031 0.031,-0.031 0.031,0 0.0465,0.0155 0.0465,0.031 z m 0,0.961 v 0.558 c 0,0.0155 -0.0155,0.031 -0.0465,0.031 -0.0155,0 -0.031,-0.0155 -0.031,-0.031 v -0.558 c 0,-0.031 0.0155,-0.0465 0.031,-0.0465 0.031,0 0.0465,0.0155 0.0465,0.0465 z m 0,0.9455 v 0.558 c 0,0.0155 -0.0155,0.0465 -0.0465,0.0465 -0.0155,0 -0.031,-0.031 -0.031,-0.0465 v -0.558 c 0,-0.0155 0.0155,-0.031 0.031,-0.031 0.031,0 0.0465,0.0155 0.0465,0.031 z m 0.0775,0.94551 v 0.0155 -0.0155 l 0.2015,0.29449 -0.0155,-0.0155 0.1395,0.10849 c 0.0155,0.0155 0.031,0.031 0.0155,0.0465 -0.0155,0.031 -0.031,0.031 -0.062,0.0155 l -0.1395,-0.093 c 0,-0.0155 0,-0.0155 -0.0155,-0.0155 l -0.2015,-0.29451 c 0,0 0,-0.0155 0,-0.0155 v -0.0155 c -0.0155,-0.031 0,-0.0465 0.031,-0.0465 0.0155,-0.0155 0.031,0 0.0465,0.031 z"
       style="fill:#000000;fill-opacity:1;fill-rule:nonzero;stroke:#000000;stroke-width:0.0155px;stroke-linecap:butt;stroke-linejoin:round;stroke-miterlimit:4;stroke-dasharray:none;stroke-opacity:1"
       inkscape:connector-curvature="0" />
    <path
       id="path6085"
       d="m 34.960185,116.46277 v 0.82149 h 12.71 v -0.82149 z"
       style="fill:#00b0f0;fill-opacity:1;fill-rule:evenodd;stroke:none;stroke-width:0.26458332"
       inkscape:connector-curvature="0" />
    <path
       id="path6087"
       d="m 34.960185,117.28426 h 12.71 v -0.82149 h -12.71 z"
       style="fill:none;stroke:#0070c0;stroke-width:0.24800001px;stroke-linecap:round;stroke-linejoin:round;stroke-miterlimit:4;stroke-dasharray:none;stroke-opacity:1"
       inkscape:connector-curvature="0" />
    <path
       id="path6089"
       d="m 34.960185,117.79577 v 0.806 h 12.71 v -0.806 z"
       style="fill:#00b050;fill-opacity:1;fill-rule:evenodd;stroke:none;stroke-width:0.26458332"
       inkscape:connector-curvature="0" />
    <path
       id="path6091"
       d="m 34.960185,118.60177 h 12.71 v -0.806 h -12.71 z"
       style="fill:none;stroke:#789440;stroke-width:0.24800001px;stroke-linecap:round;stroke-linejoin:round;stroke-miterlimit:4;stroke-dasharray:none;stroke-opacity:1"
       inkscape:connector-curvature="0" />
    <path
       id="path6093"
       d="m 34.960185,119.11326 v 0.8215 h 12.71 v -0.8215 z"
       style="fill:#ff0000;fill-opacity:1;fill-rule:evenodd;stroke:none;stroke-width:0.26458332"
       inkscape:connector-curvature="0" />
    <path
       id="path6095"
       d="m 34.960185,119.93477 h 12.71 v -0.8215 h -12.71 z"
       style="fill:none;stroke:#c00000;stroke-width:0.24800001px;stroke-linecap:round;stroke-linejoin:round;stroke-miterlimit:4;stroke-dasharray:none;stroke-opacity:1"
       inkscape:connector-curvature="0" />
    <path
       id="path6097"
       d="m 34.960185,120.53927 v 0.8215 h 12.71 v -0.8215 z"
       style="fill:#00b0f0;fill-opacity:1;fill-rule:evenodd;stroke:none;stroke-width:0.26458332"
       inkscape:connector-curvature="0" />
    <path
       id="path6099"
       d="m 34.960185,121.36077 h 12.71 v -0.8215 h -12.71 z"
       style="fill:none;stroke:#0070c0;stroke-width:0.24800001px;stroke-linecap:round;stroke-linejoin:round;stroke-miterlimit:4;stroke-dasharray:none;stroke-opacity:1"
       inkscape:connector-curvature="0" />
    <path
       id="path6101"
       d="m 34.960185,121.87227 v 0.806 h 12.71 v -0.806 z"
       style="fill:#00b050;fill-opacity:1;fill-rule:evenodd;stroke:none;stroke-width:0.26458332"
       inkscape:connector-curvature="0" />
    <path
       id="path6103"
       d="m 34.960185,122.67826 h 12.71 v -0.806 h -12.71 z"
       style="fill:none;stroke:#789440;stroke-width:0.24800001px;stroke-linecap:round;stroke-linejoin:round;stroke-miterlimit:4;stroke-dasharray:none;stroke-opacity:1"
       inkscape:connector-curvature="0" />
    <path
       id="path6105"
       d="m 43.221685,123.70126 v 0.8215 h 12.71 v -0.8215 z"
       style="fill:#f2f2f2;fill-opacity:1;fill-rule:evenodd;stroke:none;stroke-width:0.26458332"
       inkscape:connector-curvature="0" />
    <path
       id="path6107"
       d="m 43.221685,124.52277 h 12.71 v -0.8215 h -12.71 z"
       style="fill:none;stroke:#000000;stroke-width:0.24800001px;stroke-linecap:round;stroke-linejoin:round;stroke-miterlimit:4;stroke-dasharray:none;stroke-opacity:1"
       inkscape:connector-curvature="0" />
    <path
       id="path6109"
       d="m 43.221685,125.03426 v 0.80601 h 12.71 v -0.80601 z"
       style="fill:#ff0000;fill-opacity:1;fill-rule:evenodd;stroke:none;stroke-width:0.26458332"
       inkscape:connector-curvature="0" />
    <path
       id="path6111"
       d="m 43.221685,125.84027 h 12.71 v -0.80601 h -12.71 z"
       style="fill:none;stroke:#c00000;stroke-width:0.24800001px;stroke-linecap:round;stroke-linejoin:round;stroke-miterlimit:4;stroke-dasharray:none;stroke-opacity:1"
       inkscape:connector-curvature="0" />
    <text
       id="text6117"
       y="118.01188"
       x="53.808125"
       style="font-style:normal;font-variant:normal;font-weight:400;font-size:3.22460938px;line-height:125%;font-family:Arial;text-align:start;letter-spacing:0px;word-spacing:0px;text-anchor:start;fill:#000000;fill-opacity:1;stroke:none;stroke-width:0.26458332"
       xml:space="preserve"><tspan
         id="tspan6115"
         y="118.01188"
         x="53.808125"
         sodipodi:role="line"
         style="stroke-width:0.26458332"><tspan
           id="tspan6113"
           style="font-style:normal;font-variant:normal;font-weight:400;font-size:3.22460938px;font-family:Arial;fill:#000000;stroke-width:0.26458332"
           dy="0"
           dx="0">Residual </tspan></tspan></text>
    <text
       id="text6123"
       y="121.97982"
       x="55.861835"
       style="font-style:normal;font-variant:normal;font-weight:400;font-size:3.22460938px;line-height:125%;font-family:Arial;text-align:start;letter-spacing:0px;word-spacing:0px;text-anchor:start;fill:#000000;fill-opacity:1;stroke:none;stroke-width:0.26458332"
       xml:space="preserve"><tspan
         id="tspan6121"
         y="121.97982"
         x="55.861835"
         sodipodi:role="line"
         style="stroke-width:0.26458332"><tspan
           id="tspan6119"
           style="font-style:normal;font-variant:normal;font-weight:400;font-size:3.22460938px;font-family:Arial;fill:#000000;stroke-width:0.26458332"
           dy="0"
           dx="0">Block</tspan></tspan></text>
    <path
       id="path6125"
       d="m 88.357685,128.47526 h 44.980995 c 0.527,0 0.9455,-0.4185 0.9455,-0.93 v -15.841 c 0,-0.5115 -0.4185,-0.93 -0.9455,-0.93 H 88.357685 c -0.527,0 -0.9455,0.4185 -0.9455,0.93 v 15.841 c 0,0.5115 0.4185,0.93 0.9455,0.93 z"
       style="fill:#ffffff;fill-opacity:1;fill-rule:evenodd;stroke:none;stroke-width:0.26458332"
       inkscape:connector-curvature="0" />
    <path
       id="path6127"
       d="m 88.078685,128.38227 0.2945,0.062 h -0.0155 0.2635 c 0.0155,0 0.031,0.0155 0.031,0.031 0,0.031 -0.0155,0.0465 -0.031,0.0465 h -0.2635 c 0,0 0,0 0,0 l -0.2945,-0.062 c -0.0155,0 -0.031,-0.031 -0.031,-0.0465 0,-0.0155 0.031,-0.031 0.0465,-0.031 z m 0.9455,0.062 h 0.5425 c 0.031,0 0.0465,0.0155 0.0465,0.031 0,0.031 -0.0155,0.0465 -0.0465,0.0465 h -0.5425 c -0.031,0 -0.0465,-0.0155 -0.0465,-0.0465 0,-0.0155 0.0155,-0.031 0.0465,-0.031 z m 0.9455,0 h 0.558 c 0.0155,0 0.031,0.0155 0.031,0.031 0,0.031 -0.0155,0.0465 -0.031,0.0465 h -0.558 c -0.0155,0 -0.0465,-0.0155 -0.0465,-0.0465 0,-0.0155 0.031,-0.031 0.0465,-0.031 z m 0.9455,0 h 0.558 c 0.031,0 0.0465,0.0155 0.0465,0.031 0,0.031 -0.0155,0.0465 -0.0465,0.0465 h -0.558 c -0.0155,0 -0.031,-0.0155 -0.031,-0.0465 0,-0.0155 0.0155,-0.031 0.031,-0.031 z m 0.961,0 h 0.558 c 0.0155,0 0.031,0.0155 0.031,0.031 0,0.031 -0.0155,0.0465 -0.031,0.0465 h -0.558 c -0.031,0 -0.0465,-0.0155 -0.0465,-0.0465 0,-0.0155 0.0155,-0.031 0.0465,-0.031 z m 0.9455,0 h 0.558 c 0.031,0 0.0465,0.0155 0.0465,0.031 0,0.031 -0.0155,0.0465 -0.0465,0.0465 h -0.558 c -0.0155,0 -0.031,-0.0155 -0.031,-0.0465 0,-0.0155 0.0155,-0.031 0.031,-0.031 z m 0.961,0 h 0.558 c 0.0155,0 0.031,0.0155 0.031,0.031 0,0.031 -0.0155,0.0465 -0.031,0.0465 h -0.558 c -0.031,0 -0.0465,-0.0155 -0.0465,-0.0465 0,-0.0155 0.0155,-0.031 0.0465,-0.031 z m 0.9455,0 h 0.558 c 0.0155,0 0.0465,0.0155 0.0465,0.031 0,0.031 -0.031,0.0465 -0.0465,0.0465 h -0.558 c -0.0155,0 -0.031,-0.0155 -0.031,-0.0465 0,-0.0155 0.0155,-0.031 0.031,-0.031 z m 0.961,0 h 0.5425 c 0.031,0 0.0465,0.0155 0.0465,0.031 0,0.031 -0.0155,0.0465 -0.0465,0.0465 h -0.5425 c -0.031,0 -0.0465,-0.0155 -0.0465,-0.0465 0,-0.0155 0.0155,-0.031 0.0465,-0.031 z m 0.9455,0 h 0.558 c 0.0155,0 0.031,0.0155 0.031,0.031 0,0.031 -0.0155,0.0465 -0.031,0.0465 h -0.558 c -0.0155,0 -0.0465,-0.0155 -0.0465,-0.0465 0,-0.0155 0.031,-0.031 0.0465,-0.031 z m 0.9455,0 h 0.558 c 0.031,0 0.0465,0.0155 0.0465,0.031 0,0.031 -0.0155,0.0465 -0.0465,0.0465 h -0.558 c -0.0155,0 -0.031,-0.0155 -0.031,-0.0465 0,-0.0155 0.0155,-0.031 0.031,-0.031 z m 0.961,0 h 0.558 c 0.0155,0 0.031,0.0155 0.031,0.031 0,0.031 -0.0155,0.0465 -0.031,0.0465 h -0.558 c -0.031,0 -0.0465,-0.0155 -0.0465,-0.0465 0,-0.0155 0.0155,-0.031 0.0465,-0.031 z m 0.9455,0 h 0.557995 c 0.031,0 0.0465,0.0155 0.0465,0.031 0,0.031 -0.0155,0.0465 -0.0465,0.0465 h -0.557995 c -0.0155,0 -0.031,-0.0155 -0.031,-0.0465 0,-0.0155 0.0155,-0.031 0.031,-0.031 z m 0.960995,0 h 0.558 c 0.0155,0 0.031,0.0155 0.031,0.031 0,0.031 -0.0155,0.0465 -0.031,0.0465 h -0.558 c -0.031,0 -0.0465,-0.0155 -0.0465,-0.0465 0,-0.0155 0.0155,-0.031 0.0465,-0.031 z m 0.9455,0 h 0.558 c 0.0155,0 0.0465,0.0155 0.0465,0.031 0,0.031 -0.031,0.0465 -0.0465,0.0465 h -0.558 c -0.0155,0 -0.031,-0.0155 -0.031,-0.0465 0,-0.0155 0.0155,-0.031 0.031,-0.031 z m 0.961,0 h 0.558 c 0.0155,0 0.031,0.0155 0.031,0.031 0,0.031 -0.0155,0.0465 -0.031,0.0465 h -0.558 c -0.031,0 -0.0465,-0.0155 -0.0465,-0.0465 0,-0.0155 0.0155,-0.031 0.0465,-0.031 z m 0.9455,0 h 0.558 c 0.0155,0 0.0465,0.0155 0.0465,0.031 0,0.031 -0.031,0.0465 -0.0465,0.0465 h -0.558 c -0.0155,0 -0.031,-0.0155 -0.031,-0.0465 0,-0.0155 0.0155,-0.031 0.031,-0.031 z m 0.961,0 h 0.5425 c 0.031,0 0.0465,0.0155 0.0465,0.031 0,0.031 -0.0155,0.0465 -0.0465,0.0465 h -0.5425 c -0.031,0 -0.0465,-0.0155 -0.0465,-0.0465 0,-0.0155 0.0155,-0.031 0.0465,-0.031 z m 0.9455,0 h 0.558 c 0.0155,0 0.031,0.0155 0.031,0.031 0,0.031 -0.0155,0.0465 -0.031,0.0465 h -0.558 c -0.0155,0 -0.0465,-0.0155 -0.0465,-0.0465 0,-0.0155 0.031,-0.031 0.0465,-0.031 z m 0.9455,0 h 0.558 c 0.031,0 0.0465,0.0155 0.0465,0.031 0,0.031 -0.0155,0.0465 -0.0465,0.0465 h -0.558 c -0.0155,0 -0.031,-0.0155 -0.031,-0.0465 0,-0.0155 0.0155,-0.031 0.031,-0.031 z m 0.961,0 h 0.558 c 0.0155,0 0.031,0.0155 0.031,0.031 0,0.031 -0.0155,0.0465 -0.031,0.0465 h -0.558 c -0.031,0 -0.0465,-0.0155 -0.0465,-0.0465 0,-0.0155 0.0155,-0.031 0.0465,-0.031 z m 0.9455,0 h 0.558 c 0.031,0 0.0465,0.0155 0.0465,0.031 0,0.031 -0.0155,0.0465 -0.0465,0.0465 h -0.558 c -0.0155,0 -0.031,-0.0155 -0.031,-0.0465 0,-0.0155 0.0155,-0.031 0.031,-0.031 z m 0.961,0 h 0.558 c 0.0155,0 0.031,0.0155 0.031,0.031 0,0.031 -0.0155,0.0465 -0.031,0.0465 h -0.558 c -0.031,0 -0.0465,-0.0155 -0.0465,-0.0465 0,-0.0155 0.0155,-0.031 0.0465,-0.031 z m 0.9455,0 h 0.558 c 0.0155,0 0.0465,0.0155 0.0465,0.031 0,0.031 -0.031,0.0465 -0.0465,0.0465 h -0.558 c -0.0155,0 -0.031,-0.0155 -0.031,-0.0465 0,-0.0155 0.0155,-0.031 0.031,-0.031 z m 0.961,0 h 0.5425 c 0.031,0 0.0465,0.0155 0.0465,0.031 0,0.031 -0.0155,0.0465 -0.0465,0.0465 h -0.5425 c -0.031,0 -0.0465,-0.0155 -0.0465,-0.0465 0,-0.0155 0.0155,-0.031 0.0465,-0.031 z m 0.9455,0 h 0.558 c 0.0155,0 0.031,0.0155 0.031,0.031 0,0.031 -0.0155,0.0465 -0.031,0.0465 h -0.558 c -0.0155,0 -0.031,-0.0155 -0.031,-0.0465 0,-0.0155 0.0155,-0.031 0.031,-0.031 z m 0.961,0 h 0.5425 c 0.031,0 0.0465,0.0155 0.0465,0.031 0,0.031 -0.0155,0.0465 -0.0465,0.0465 h -0.5425 c -0.031,0 -0.0465,-0.0155 -0.0465,-0.0465 0,-0.0155 0.0155,-0.031 0.0465,-0.031 z m 0.9455,0 h 0.558 c 0.0155,0 0.031,0.0155 0.031,0.031 0,0.031 -0.0155,0.0465 -0.031,0.0465 h -0.558 c -0.0155,0 -0.0465,-0.0155 -0.0465,-0.0465 0,-0.0155 0.031,-0.031 0.0465,-0.031 z m 0.9455,0 h 0.558 c 0.031,0 0.0465,0.0155 0.0465,0.031 0,0.031 -0.0155,0.0465 -0.0465,0.0465 h -0.558 c -0.0155,0 -0.031,-0.0155 -0.031,-0.0465 0,-0.0155 0.0155,-0.031 0.031,-0.031 z m 0.961,0 h 0.558 c 0.0155,0 0.031,0.0155 0.031,0.031 0,0.031 -0.0155,0.0465 -0.031,0.0465 h -0.558 c -0.031,0 -0.0465,-0.0155 -0.0465,-0.0465 0,-0.0155 0.0155,-0.031 0.0465,-0.031 z m 0.9455,0 h 0.558 c 0.031,0 0.0465,0.0155 0.0465,0.031 0,0.031 -0.0155,0.0465 -0.0465,0.0465 h -0.558 c -0.0155,0 -0.031,-0.0155 -0.031,-0.0465 0,-0.0155 0.0155,-0.031 0.031,-0.031 z m 0.961,0 h 0.558 c 0.0155,0 0.031,0.0155 0.031,0.031 0,0.031 -0.0155,0.0465 -0.031,0.0465 h -0.558 c -0.031,0 -0.0465,-0.0155 -0.0465,-0.0465 0,-0.0155 0.0155,-0.031 0.0465,-0.031 z m 0.9455,0 h 0.558 c 0.0155,0 0.0465,0.0155 0.0465,0.031 0,0.031 -0.031,0.0465 -0.0465,0.0465 h -0.558 c -0.0155,0 -0.031,-0.0155 -0.031,-0.0465 0,-0.0155 0.0155,-0.031 0.031,-0.031 z m 0.961,0 h 0.5425 c 0.031,0 0.0465,0.0155 0.0465,0.031 0,0.031 -0.0155,0.0465 -0.0465,0.0465 h -0.5425 c -0.031,0 -0.0465,-0.0155 -0.0465,-0.0465 0,-0.0155 0.0155,-0.031 0.0465,-0.031 z m 0.9455,0 h 0.558 c 0.0155,0 0.031,0.0155 0.031,0.031 0,0.031 -0.0155,0.0465 -0.031,0.0465 h -0.558 c -0.0155,0 -0.0465,-0.0155 -0.0465,-0.0465 0,-0.0155 0.031,-0.031 0.0465,-0.031 z m 0.9455,0 h 0.558 c 0.031,0 0.0465,0.0155 0.0465,0.031 0,0.031 -0.0155,0.0465 -0.0465,0.0465 h -0.558 c -0.0155,0 -0.031,-0.0155 -0.031,-0.0465 0,-0.0155 0.0155,-0.031 0.031,-0.031 z m 0.961,0 h 0.558 c 0.0155,0 0.031,0.0155 0.031,0.031 0,0.031 -0.0155,0.0465 -0.031,0.0465 h -0.558 c -0.031,0 -0.0465,-0.0155 -0.0465,-0.0465 0,-0.0155 0.0155,-0.031 0.0465,-0.031 z m 0.9455,0 h 0.558 c 0.031,0 0.0465,0.0155 0.0465,0.031 0,0.031 -0.0155,0.0465 -0.0465,0.0465 h -0.558 c -0.0155,0 -0.031,-0.0155 -0.031,-0.0465 0,-0.0155 0.0155,-0.031 0.031,-0.031 z m 0.961,0 h 0.558 c 0.0155,0 0.031,0.0155 0.031,0.031 0,0.031 -0.0155,0.0465 -0.031,0.0465 h -0.558 c -0.031,0 -0.0465,-0.0155 -0.0465,-0.0465 0,-0.0155 0.0155,-0.031 0.0465,-0.031 z m 0.9455,0 h 0.558 c 0.0155,0 0.0465,0.0155 0.0465,0.031 0,0.031 -0.031,0.0465 -0.0465,0.0465 h -0.558 c -0.0155,0 -0.031,-0.0155 -0.031,-0.0465 0,-0.0155 0.0155,-0.031 0.031,-0.031 z m 0.961,0 h 0.558 c 0.0155,0 0.031,0.0155 0.031,0.031 0,0.031 -0.0155,0.0465 -0.031,0.0465 h -0.558 c -0.031,0 -0.0465,-0.0155 -0.0465,-0.0465 0,-0.0155 0.0155,-0.031 0.0465,-0.031 z m 0.9455,0 h 0.558 c 0.0155,0 0.0465,0.0155 0.0465,0.031 0,0.031 -0.031,0.0465 -0.0465,0.0465 h -0.558 c -0.0155,0 -0.031,-0.0155 -0.031,-0.0465 0,-0.0155 0.0155,-0.031 0.031,-0.031 z m 0.961,0 h 0.5425 c 0.031,0 0.0465,0.0155 0.0465,0.031 0,0.031 -0.0155,0.0465 -0.0465,0.0465 h -0.5425 c -0.031,0 -0.0465,-0.0155 -0.0465,-0.0465 0,-0.0155 0.0155,-0.031 0.0465,-0.031 z m 0.9455,0 h 0.558 c 0.0155,0 0.031,0.0155 0.031,0.031 0,0.031 -0.0155,0.0465 -0.031,0.0465 h -0.558 c -0.0155,0 -0.0465,-0.0155 -0.0465,-0.0465 0,-0.0155 0.031,-0.031 0.0465,-0.031 z m 0.9455,0 h 0.558 c 0.031,0 0.0465,0.0155 0.0465,0.031 0,0.031 -0.0155,0.0465 -0.0465,0.0465 h -0.558 c -0.0155,0 -0.031,-0.0155 -0.031,-0.0465 0,-0.0155 0.0155,-0.031 0.031,-0.031 z m 0.961,0 h 0.558 c 0.0155,0 0.031,0.0155 0.031,0.031 0,0.031 -0.0155,0.0465 -0.031,0.0465 h -0.558 c -0.031,0 -0.0465,-0.0155 -0.0465,-0.0465 0,-0.0155 0.0155,-0.031 0.0465,-0.031 z m 0.9455,0 h 0.558 c 0.031,0 0.0465,0.0155 0.0465,0.031 0,0.031 -0.0155,0.0465 -0.0465,0.0465 h -0.558 c -0.0155,0 -0.031,-0.0155 -0.031,-0.0465 0,-0.0155 0.0155,-0.031 0.031,-0.031 z m 0.961,0 h 0.5115 v 0 h 0.031 c 0.0155,-0.0155 0.0465,0 0.0465,0.031 0,0.0155 -0.0155,0.031 -0.031,0.0465 h -0.031 c 0,0 0,0 -0.0155,0 h -0.5115 c -0.031,0 -0.0465,-0.0155 -0.0465,-0.0465 0,-0.0155 0.0155,-0.031 0.0465,-0.031 z m 0.9145,-0.093 0.248,-0.18599 -0.0155,0.0155 0.1395,-0.20149 c 0.0155,-0.0155 0.0465,-0.031 0.062,-0.0155 0.0155,0.0155 0.0155,0.0465 0.0155,0.062 l -0.1395,0.2015 c -0.0155,0 -0.0155,0 -0.0155,0.0155 l -0.248,0.1705 c -0.031,0.0155 -0.0465,0 -0.062,-0.0155 -0.0155,-0.0155 0,-0.0465 0.0155,-0.0465 z m 0.496,-0.72849 0.0155,-0.0775 v 0 -0.465 c 0,-0.031 0.0155,-0.0465 0.031,-0.0465 0.031,0 0.0465,0.0155 0.0465,0.0465 v 0.465 c 0,0.0155 0,0.0155 0,0.0155 l -0.0155,0.0775 c 0,0.0155 -0.031,0.031 -0.0465,0.031 -0.031,-0.0155 -0.031,-0.031 -0.031,-0.0465 z m 0.0155,-0.9455 v -0.558 c 0,-0.0155 0.0155,-0.031 0.031,-0.031 0.031,0 0.0465,0.0155 0.0465,0.031 v 0.558 c 0,0.0155 -0.0155,0.0465 -0.0465,0.0465 -0.0155,0 -0.031,-0.031 -0.031,-0.0465 z m 0,-0.9455 v -0.558 c 0,-0.031 0.0155,-0.0465 0.031,-0.0465 0.031,0 0.0465,0.0155 0.0465,0.0465 v 0.558 c 0,0.0155 -0.0155,0.031 -0.0465,0.031 -0.0155,0 -0.031,-0.0155 -0.031,-0.031 z m 0,-0.96101 v -0.55799 c 0,-0.0155 0.0155,-0.031 0.031,-0.031 0.031,0 0.0465,0.0155 0.0465,0.031 v 0.55799 c 0,0.0155 -0.0155,0.0465 -0.0465,0.0465 -0.0155,0 -0.031,-0.031 -0.031,-0.0465 z m 0,-0.9455 v -0.558 c 0,-0.031 0.0155,-0.0465 0.031,-0.0465 0.031,0 0.0465,0.0155 0.0465,0.0465 v 0.558 c 0,0.0155 -0.0155,0.031 -0.0465,0.031 -0.0155,0 -0.031,-0.0155 -0.031,-0.031 z m 0,-0.961 v -0.558 c 0,-0.0155 0.0155,-0.031 0.031,-0.031 0.031,0 0.0465,0.0155 0.0465,0.031 v 0.558 c 0,0.031 -0.0155,0.0465 -0.0465,0.0465 -0.0155,0 -0.031,-0.0155 -0.031,-0.0465 z m 0,-0.9455 v -0.558 c 0,-0.0155 0.0155,-0.0465 0.031,-0.0465 0.031,0 0.0465,0.031 0.0465,0.0465 v 0.558 c 0,0.0155 -0.0155,0.031 -0.0465,0.031 -0.0155,0 -0.031,-0.0155 -0.031,-0.031 z m 0,-0.961 v -0.558 c 0,-0.0155 0.0155,-0.031 0.031,-0.031 0.031,0 0.0465,0.0155 0.0465,0.031 v 0.558 c 0,0.031 -0.0155,0.0465 -0.0465,0.0465 -0.0155,0 -0.031,-0.0155 -0.031,-0.0465 z m 0,-0.9455 v -0.558 c 0,-0.0155 0.0155,-0.0465 0.031,-0.0465 0.031,0 0.0465,0.031 0.0465,0.0465 v 0.558 c 0,0.0155 -0.0155,0.031 -0.0465,0.031 -0.0155,0 -0.031,-0.0155 -0.031,-0.031 z m 0,-0.961 v -0.5425 c 0,-0.031 0.0155,-0.0465 0.031,-0.0465 0.031,0 0.0465,0.0155 0.0465,0.0465 v 0.5425 c 0,0.031 -0.0155,0.0465 -0.0465,0.0465 -0.0155,0 -0.031,-0.0155 -0.031,-0.0465 z m 0,-0.9455 v -0.558 c 0,-0.0155 0.0155,-0.031 0.031,-0.031 0.031,0 0.0465,0.0155 0.0465,0.031 v 0.558 c 0,0.0155 -0.0155,0.0465 -0.0465,0.0465 -0.0155,0 -0.031,-0.031 -0.031,-0.0465 z m 0,-0.9455 v -0.558 c 0,-0.031 0.0155,-0.0465 0.031,-0.0465 0.031,0 0.0465,0.0155 0.0465,0.0465 v 0.558 c 0,0.0155 -0.0155,0.031 -0.0465,0.031 -0.0155,0 -0.031,-0.0155 -0.031,-0.031 z m 0,-0.961 v -0.558 c 0,-0.0155 0.0155,-0.031 0.031,-0.031 0.031,0 0.0465,0.0155 0.0465,0.031 v 0.558 c 0,0.031 -0.0155,0.0465 -0.0465,0.0465 -0.0155,0 -0.031,-0.0155 -0.031,-0.0465 z m 0,-0.9455 v -0.558 c 0,-0.031 0.0155,-0.0465 0.031,-0.0465 0.031,0 0.0465,0.0155 0.0465,0.0465 v 0.558 c 0,0.0155 -0.0155,0.031 -0.0465,0.031 -0.0155,0 -0.031,-0.0155 -0.031,-0.031 z m 0,-0.961 v -0.558 c 0,-0.0155 0.0155,-0.031 0.031,-0.031 0.031,0 0.0465,0.0155 0.0465,0.031 v 0.558 c 0,0.031 -0.0155,0.0465 -0.0465,0.0465 -0.0155,0 -0.031,-0.0155 -0.031,-0.0465 z m 0,-0.9455 v -0.558 c 0,-0.0155 0.0155,-0.0465 0.031,-0.0465 0.031,0 0.0465,0.031 0.0465,0.0465 v 0.558 c 0,0.0155 -0.0155,0.031 -0.0465,0.031 -0.0155,0 -0.031,-0.0155 -0.031,-0.031 z m 0,-0.961 v -0.5425 c 0,-0.031 0.0155,-0.0465 0.031,-0.0465 0.031,0 0.0465,0.0155 0.0465,0.0465 v 0.5425 c 0,0.031 -0.0155,0.0465 -0.0465,0.0465 -0.0155,0 -0.031,-0.0155 -0.031,-0.0465 z m -0.062,-0.93 -0.0155,-0.093 v 0.0155 l -0.2015,-0.2945 0.0155,0.0155 -0.093,-0.062 c -0.0155,-0.0155 -0.0155,-0.0465 0,-0.062 0.0155,-0.0155 0.031,-0.0155 0.0465,-0.0155 l 0.093,0.062 c 0,0.0155 0,0.0155 0.0155,0.0155 l 0.2015,0.2945 c 0,0 0,0.0155 0,0.0155 l 0.0155,0.093 c 0.0155,0.0155 0,0.0465 -0.031,0.0465 -0.0155,0 -0.031,-0.0155 -0.0465,-0.031 z m -0.62,-0.589 -0.2325,-0.0465 v 0 h -0.31 c -0.031,0 -0.0465,-0.0155 -0.0465,-0.0465 0,-0.0155 0.0155,-0.031 0.0465,-0.031 h 0.31 c 0.0155,0 0.0155,0 0.0155,0 l 0.2325,0.0465 c 0.0155,0 0.031,0.031 0.031,0.0465 -0.0155,0.0155 -0.031,0.031 -0.0465,0.031 z m -0.9455,-0.0465 h -0.558 c -0.0155,0 -0.031,-0.0155 -0.031,-0.0465 0,-0.0155 0.0155,-0.031 0.031,-0.031 h 0.558 c 0.031,0 0.0465,0.0155 0.0465,0.031 0,0.031 -0.0155,0.0465 -0.0465,0.0465 z m -0.9455,0 h -0.558 c -0.031,0 -0.0465,-0.0155 -0.0465,-0.0465 0,-0.0155 0.0155,-0.031 0.0465,-0.031 h 0.558 c 0.0155,0 0.031,0.0155 0.031,0.031 0,0.031 -0.0155,0.0465 -0.031,0.0465 z m -0.961,0 h -0.558 c -0.0155,0 -0.031,-0.0155 -0.031,-0.0465 0,-0.0155 0.0155,-0.031 0.031,-0.031 h 0.558 c 0.031,0 0.0465,0.0155 0.0465,0.031 0,0.031 -0.0155,0.0465 -0.0465,0.0465 z m -0.9455,0 h -0.558 c -0.0155,0 -0.0465,-0.0155 -0.0465,-0.0465 0,-0.0155 0.031,-0.031 0.0465,-0.031 h 0.558 c 0.0155,0 0.031,0.0155 0.031,0.031 0,0.031 -0.0155,0.0465 -0.031,0.0465 z m -0.961,0 h -0.5425 c -0.031,0 -0.0465,-0.0155 -0.0465,-0.0465 0,-0.0155 0.0155,-0.031 0.0465,-0.031 h 0.5425 c 0.031,0 0.0465,0.0155 0.0465,0.031 0,0.031 -0.0155,0.0465 -0.0465,0.0465 z m -0.9455,0 h -0.558 c -0.0155,0 -0.031,-0.0155 -0.031,-0.0465 0,-0.0155 0.0155,-0.031 0.031,-0.031 h 0.558 c 0.0155,0 0.031,0.0155 0.031,0.031 0,0.031 -0.0155,0.0465 -0.031,0.0465 z m -0.961,0 h -0.5425 c -0.031,0 -0.0465,-0.0155 -0.0465,-0.0465 0,-0.0155 0.0155,-0.031 0.0465,-0.031 h 0.5425 c 0.031,0 0.0465,0.0155 0.0465,0.031 0,0.031 -0.0155,0.0465 -0.0465,0.0465 z m -0.9455,0 h -0.558 c -0.0155,0 -0.031,-0.0155 -0.031,-0.0465 0,-0.0155 0.0155,-0.031 0.031,-0.031 h 0.558 c 0.0155,0 0.0465,0.0155 0.0465,0.031 0,0.031 -0.031,0.0465 -0.0465,0.0465 z m -0.9455,0 h -0.558 c -0.031,0 -0.0465,-0.0155 -0.0465,-0.0465 0,-0.0155 0.0155,-0.031 0.0465,-0.031 h 0.558 c 0.0155,0 0.031,0.0155 0.031,0.031 0,0.031 -0.0155,0.0465 -0.031,0.0465 z m -0.961,0 h -0.558 c -0.0155,0 -0.031,-0.0155 -0.031,-0.0465 0,-0.0155 0.0155,-0.031 0.031,-0.031 h 0.558 c 0.031,0 0.0465,0.0155 0.0465,0.031 0,0.031 -0.0155,0.0465 -0.0465,0.0465 z m -0.9455,0 h -0.558 c -0.031,0 -0.0465,-0.0155 -0.0465,-0.0465 0,-0.0155 0.0155,-0.031 0.0465,-0.031 h 0.558 c 0.0155,0 0.031,0.0155 0.031,0.031 0,0.031 -0.0155,0.0465 -0.031,0.0465 z m -0.961,0 h -0.558 c -0.0155,0 -0.031,-0.0155 -0.031,-0.0465 0,-0.0155 0.0155,-0.031 0.031,-0.031 h 0.558 c 0.031,0 0.0465,0.0155 0.0465,0.031 0,0.031 -0.0155,0.0465 -0.0465,0.0465 z m -0.9455,0 h -0.558 c -0.0155,0 -0.0465,-0.0155 -0.0465,-0.0465 0,-0.0155 0.031,-0.031 0.0465,-0.031 h 0.558 c 0.0155,0 0.031,0.0155 0.031,0.031 0,0.031 -0.0155,0.0465 -0.031,0.0465 z m -0.961,0 h -0.5425 c -0.031,0 -0.0465,-0.0155 -0.0465,-0.0465 0,-0.0155 0.0155,-0.031 0.0465,-0.031 h 0.5425 c 0.031,0 0.0465,0.0155 0.0465,0.031 0,0.031 -0.0155,0.0465 -0.0465,0.0465 z m -0.9455,0 h -0.558 c -0.0155,0 -0.031,-0.0155 -0.031,-0.0465 0,-0.0155 0.0155,-0.031 0.031,-0.031 h 0.558 c 0.0155,0 0.0465,0.0155 0.0465,0.031 0,0.031 -0.031,0.0465 -0.0465,0.0465 z m -0.9455,0 h -0.558 c -0.031,0 -0.0465,-0.0155 -0.0465,-0.0465 0,-0.0155 0.0155,-0.031 0.0465,-0.031 h 0.558 c 0.0155,0 0.031,0.0155 0.031,0.031 0,0.031 -0.0155,0.0465 -0.031,0.0465 z m -0.961,0 h -0.558 c -0.0155,0 -0.031,-0.0155 -0.031,-0.0465 0,-0.0155 0.0155,-0.031 0.031,-0.031 h 0.558 c 0.031,0 0.0465,0.0155 0.0465,0.031 0,0.031 -0.0155,0.0465 -0.0465,0.0465 z m -0.9455,0 h -0.558 c -0.031,0 -0.0465,-0.0155 -0.0465,-0.0465 0,-0.0155 0.0155,-0.031 0.0465,-0.031 h 0.558 c 0.0155,0 0.031,0.0155 0.031,0.031 0,0.031 -0.0155,0.0465 -0.031,0.0465 z m -0.961,0 h -0.558 c -0.0155,0 -0.031,-0.0155 -0.031,-0.0465 0,-0.0155 0.0155,-0.031 0.031,-0.031 h 0.558 c 0.031,0 0.0465,0.0155 0.0465,0.031 0,0.031 -0.0155,0.0465 -0.0465,0.0465 z m -0.9455,0 h -0.558 c -0.0155,0 -0.0465,-0.0155 -0.0465,-0.0465 0,-0.0155 0.031,-0.031 0.0465,-0.031 h 0.558 c 0.0155,0 0.031,0.0155 0.031,0.031 0,0.031 -0.0155,0.0465 -0.031,0.0465 z m -0.961,0 h -0.558 c -0.0155,0 -0.031,-0.0155 -0.031,-0.0465 0,-0.0155 0.0155,-0.031 0.031,-0.031 h 0.558 c 0.031,0 0.0465,0.0155 0.0465,0.031 0,0.031 -0.0155,0.0465 -0.0465,0.0465 z m -0.9455,0 h -0.558 c -0.0155,0 -0.0465,-0.0155 -0.0465,-0.0465 0,-0.0155 0.031,-0.031 0.0465,-0.031 h 0.558 c 0.0155,0 0.031,0.0155 0.031,0.031 0,0.031 -0.0155,0.0465 -0.031,0.0465 z m -0.961,0 h -0.5425 c -0.031,0 -0.0465,-0.0155 -0.0465,-0.0465 0,-0.0155 0.0155,-0.031 0.0465,-0.031 h 0.5425 c 0.031,0 0.0465,0.0155 0.0465,0.031 0,0.031 -0.0155,0.0465 -0.0465,0.0465 z m -0.9455,0 h -0.558 c -0.0155,0 -0.031,-0.0155 -0.031,-0.0465 0,-0.0155 0.0155,-0.031 0.031,-0.031 h 0.558 c 0.0155,0 0.0465,0.0155 0.0465,0.031 0,0.031 -0.031,0.0465 -0.0465,0.0465 z m -0.9455,0 h -0.558 c -0.031,0 -0.0465,-0.0155 -0.0465,-0.0465 0,-0.0155 0.0155,-0.031 0.0465,-0.031 h 0.558 c 0.0155,0 0.031,0.0155 0.031,0.031 0,0.031 -0.0155,0.0465 -0.031,0.0465 z m -0.961,0 h -0.558 c -0.0155,0 -0.031,-0.0155 -0.031,-0.0465 0,-0.0155 0.0155,-0.031 0.031,-0.031 h 0.558 c 0.031,0 0.0465,0.0155 0.0465,0.031 0,0.031 -0.0155,0.0465 -0.0465,0.0465 z m -0.9455,0 h -0.558 c -0.031,0 -0.0465,-0.0155 -0.0465,-0.0465 0,-0.0155 0.0155,-0.031 0.0465,-0.031 h 0.558 c 0.0155,0 0.031,0.0155 0.031,0.031 0,0.031 -0.0155,0.0465 -0.031,0.0465 z m -0.961,0 h -0.558 c -0.0155,0 -0.031,-0.0155 -0.031,-0.0465 0,-0.0155 0.0155,-0.031 0.031,-0.031 h 0.558 c 0.031,0 0.0465,0.0155 0.0465,0.031 0,0.031 -0.0155,0.0465 -0.0465,0.0465 z m -0.9455,0 h -0.558 c -0.0155,0 -0.0465,-0.0155 -0.0465,-0.0465 0,-0.0155 0.031,-0.031 0.0465,-0.031 h 0.558 c 0.0155,0 0.031,0.0155 0.031,0.031 0,0.031 -0.0155,0.0465 -0.031,0.0465 z m -0.961,0 h -0.5425 c -0.031,0 -0.0465,-0.0155 -0.0465,-0.0465 0,-0.0155 0.0155,-0.031 0.0465,-0.031 h 0.5425 c 0.031,0 0.0465,0.0155 0.0465,0.031 0,0.031 -0.0155,0.0465 -0.0465,0.0465 z m -0.9455,0 h -0.558 c -0.0155,0 -0.031,-0.0155 -0.031,-0.0465 0,-0.0155 0.0155,-0.031 0.031,-0.031 h 0.558 c 0.0155,0 0.031,0.0155 0.031,0.031 0,0.031 -0.0155,0.0465 -0.031,0.0465 z m -0.961,0 h -0.5425 c -0.031,0 -0.0465,-0.0155 -0.0465,-0.0465 0,-0.0155 0.0155,-0.031 0.0465,-0.031 h 0.5425 c 0.031,0 0.0465,0.0155 0.0465,0.031 0,0.031 -0.0155,0.0465 -0.0465,0.0465 z m -0.9455,0 h -0.558 c -0.0155,0 -0.031,-0.0155 -0.031,-0.0465 0,-0.0155 0.0155,-0.031 0.031,-0.031 h 0.558 c 0.0155,0 0.0465,0.0155 0.0465,0.031 0,0.031 -0.031,0.0465 -0.0465,0.0465 z m -0.9455,0 h -0.558 c -0.031,0 -0.0465,-0.0155 -0.0465,-0.0465 0,-0.0155 0.0155,-0.031 0.0465,-0.031 h 0.558 c 0.0155,0 0.031,0.0155 0.031,0.031 0,0.031 -0.0155,0.0465 -0.031,0.0465 z m -0.961,0 h -0.557995 c -0.0155,0 -0.031,-0.0155 -0.031,-0.0465 0,-0.0155 0.0155,-0.031 0.031,-0.031 h 0.557995 c 0.031,0 0.0465,0.0155 0.0465,0.031 0,0.031 -0.0155,0.0465 -0.0465,0.0465 z m -0.945495,0 h -0.558 c -0.031,0 -0.0465,-0.0155 -0.0465,-0.0465 0,-0.0155 0.0155,-0.031 0.0465,-0.031 h 0.558 c 0.0155,0 0.031,0.0155 0.031,0.031 0,0.031 -0.0155,0.0465 -0.031,0.0465 z m -0.961,0 h -0.558 c -0.0155,0 -0.031,-0.0155 -0.031,-0.0465 0,-0.0155 0.0155,-0.031 0.031,-0.031 h 0.558 c 0.031,0 0.0465,0.0155 0.0465,0.031 0,0.031 -0.0155,0.0465 -0.0465,0.0465 z m -0.9455,0 h -0.558 c -0.0155,0 -0.0465,-0.0155 -0.0465,-0.0465 0,-0.0155 0.031,-0.031 0.0465,-0.031 h 0.558 c 0.0155,0 0.031,0.0155 0.031,0.031 0,0.031 -0.0155,0.0465 -0.031,0.0465 z m -0.961,0 h -0.5425 c -0.031,0 -0.0465,-0.0155 -0.0465,-0.0465 0,-0.0155 0.0155,-0.031 0.0465,-0.031 h 0.5425 c 0.031,0 0.0465,0.0155 0.0465,0.031 0,0.031 -0.0155,0.0465 -0.0465,0.0465 z m -0.9455,0 h -0.558 c -0.0155,0 -0.031,-0.0155 -0.031,-0.0465 0,-0.0155 0.0155,-0.031 0.031,-0.031 h 0.558 c 0.0155,0 0.0465,0.0155 0.0465,0.031 0,0.031 -0.031,0.0465 -0.0465,0.0465 z m -0.9455,0 h -0.558 c -0.031,0 -0.0465,-0.0155 -0.0465,-0.0465 0,-0.0155 0.0155,-0.031 0.0465,-0.031 h 0.558 c 0.0155,0 0.031,0.0155 0.031,0.031 0,0.031 -0.0155,0.0465 -0.031,0.0465 z m -0.961,0 h -0.558 c -0.0155,0 -0.031,-0.0155 -0.031,-0.0465 0,-0.0155 0.0155,-0.031 0.031,-0.031 h 0.558 c 0.031,0 0.0465,0.0155 0.0465,0.031 0,0.031 -0.0155,0.0465 -0.0465,0.0465 z m -0.9455,0 h -0.558 c -0.031,0 -0.0465,-0.0155 -0.0465,-0.0465 0,-0.0155 0.0155,-0.031 0.0465,-0.031 h 0.558 c 0.0155,0 0.031,0.0155 0.031,0.031 0,0.031 -0.0155,0.0465 -0.031,0.0465 z m -0.961,0 h -0.558 c -0.0155,0 -0.031,-0.0155 -0.031,-0.0465 0,-0.0155 0.0155,-0.031 0.031,-0.031 h 0.558 c 0.031,0 0.0465,0.0155 0.0465,0.031 0,0.031 -0.0155,0.0465 -0.0465,0.0465 z m -0.9455,0 h -0.558 c -0.0155,0 -0.0465,-0.0155 -0.0465,-0.0465 0,-0.0155 0.031,-0.031 0.0465,-0.031 h 0.558 c 0.0155,0 0.031,0.0155 0.031,0.031 0,0.031 -0.0155,0.0465 -0.031,0.0465 z m -0.961,0 h -0.558 c -0.0155,0 -0.031,-0.0155 -0.031,-0.0465 0,-0.0155 0.0155,-0.031 0.031,-0.031 h 0.558 c 0.031,0 0.0465,0.0155 0.0465,0.031 0,0.031 -0.0155,0.0465 -0.0465,0.0465 z m -0.9455,0 h -0.465 0.0155 l -0.093,0.0155 c -0.031,0.0155 -0.0465,0 -0.0465,-0.031 -0.0155,-0.0155 0,-0.031 0.031,-0.0465 l 0.093,-0.0155 c 0,0 0,0 0,0 h 0.465 c 0.0155,0 0.031,0.0155 0.031,0.031 0,0.031 -0.0155,0.0465 -0.031,0.0465 z m -0.899,0.1395 -0.2015,0.1395 0.0155,-0.0155 -0.186,0.2635 c -0.0155,0.0155 -0.031,0.0155 -0.0465,0 -0.031,0 -0.031,-0.031 -0.0155,-0.0465 l 0.1705,-0.2635 c 0.0155,0 0.0155,0 0.0155,-0.0155 l 0.2015,-0.124 c 0.0155,-0.0155 0.0465,-0.0155 0.0465,0 0.0155,0.0155 0.0155,0.0465 0,0.062 z m -0.465,0.744 v 0.0155 -0.0155 0.558 c 0,0.0155 -0.0155,0.031 -0.0465,0.031 -0.0155,0 -0.031,-0.0155 -0.031,-0.031 v -0.558 c 0,0 0,0 0,0 v -0.0155 c 0,-0.0155 0.031,-0.031 0.0465,-0.031 0.031,0.0155 0.031,0.031 0.031,0.0465 z m 0,0.9455 v 0.558 c 0,0.031 -0.0155,0.0465 -0.0465,0.0465 -0.0155,0 -0.031,-0.0155 -0.031,-0.0465 v -0.558 c 0,-0.0155 0.0155,-0.031 0.031,-0.031 0.031,0 0.0465,0.0155 0.0465,0.031 z m 0,0.961 v 0.558 c 0,0.0155 -0.0155,0.031 -0.0465,0.031 -0.0155,0 -0.031,-0.0155 -0.031,-0.031 v -0.558 c 0,-0.031 0.0155,-0.0465 0.031,-0.0465 0.031,0 0.0465,0.0155 0.0465,0.0465 z m 0,0.9455 v 0.558 c 0,0.0155 -0.0155,0.0465 -0.0465,0.0465 -0.0155,0 -0.031,-0.031 -0.031,-0.0465 v -0.558 c 0,-0.0155 0.0155,-0.031 0.031,-0.031 0.031,0 0.0465,0.0155 0.0465,0.031 z m 0,0.961 v 0.5425 c 0,0.031 -0.0155,0.0465 -0.0465,0.0465 -0.0155,0 -0.031,-0.0155 -0.031,-0.0465 v -0.5425 c 0,-0.031 0.0155,-0.0465 0.031,-0.0465 0.031,0 0.0465,0.0155 0.0465,0.0465 z m 0,0.9455 v 0.558 c 0,0.0155 -0.0155,0.031 -0.0465,0.031 -0.0155,0 -0.031,-0.0155 -0.031,-0.031 v -0.558 c 0,-0.0155 0.0155,-0.0465 0.031,-0.0465 0.031,0 0.0465,0.031 0.0465,0.0465 z m 0,0.9455 v 0.558 c 0,0.031 -0.0155,0.0465 -0.0465,0.0465 -0.0155,0 -0.031,-0.0155 -0.031,-0.0465 v -0.558 c 0,-0.0155 0.0155,-0.031 0.031,-0.031 0.031,0 0.0465,0.0155 0.0465,0.031 z m 0,0.961 v 0.558 c 0,0.0155 -0.0155,0.031 -0.0465,0.031 -0.0155,0 -0.031,-0.0155 -0.031,-0.031 v -0.558 c 0,-0.031 0.0155,-0.0465 0.031,-0.0465 0.031,0 0.0465,0.0155 0.0465,0.0465 z m 0,0.9455 v 0.558 c 0,0.031 -0.0155,0.0465 -0.0465,0.0465 -0.0155,0 -0.031,-0.0155 -0.031,-0.0465 v -0.558 c 0,-0.0155 0.0155,-0.031 0.031,-0.031 0.031,0 0.0465,0.0155 0.0465,0.031 z m 0,0.961 v 0.558 c 0,0.0155 -0.0155,0.031 -0.0465,0.031 -0.0155,0 -0.031,-0.0155 -0.031,-0.031 v -0.558 c 0,-0.031 0.0155,-0.0465 0.031,-0.0465 0.031,0 0.0465,0.0155 0.0465,0.0465 z m 0,0.9455 v 0.558 c 0,0.0155 -0.0155,0.0465 -0.0465,0.0465 -0.0155,0 -0.031,-0.031 -0.031,-0.0465 v -0.558 c 0,-0.0155 0.0155,-0.031 0.031,-0.031 0.031,0 0.0465,0.0155 0.0465,0.031 z m 0,0.961 v 0.558 c 0,0.0155 -0.0155,0.031 -0.0465,0.031 -0.0155,0 -0.031,-0.0155 -0.031,-0.031 v -0.558 c 0,-0.031 0.0155,-0.0465 0.031,-0.0465 0.031,0 0.0465,0.0155 0.0465,0.0465 z m 0,0.9455 v 0.558 c 0,0.0155 -0.0155,0.0465 -0.0465,0.0465 -0.0155,0 -0.031,-0.031 -0.031,-0.0465 v -0.558 c 0,-0.0155 0.0155,-0.031 0.031,-0.031 0.031,0 0.0465,0.0155 0.0465,0.031 z m 0,0.961 v 0.5425 c 0,0.031 -0.0155,0.0465 -0.0465,0.0465 -0.0155,0 -0.031,-0.0155 -0.031,-0.0465 v -0.5425 c 0,-0.031 0.0155,-0.0465 0.031,-0.0465 0.031,0 0.0465,0.0155 0.0465,0.0465 z m 0,0.9455 v 0.558 c 0,0.0155 -0.0155,0.031 -0.0465,0.031 -0.0155,0 -0.031,-0.0155 -0.031,-0.031 v -0.558 c 0,-0.0155 0.0155,-0.0465 0.031,-0.0465 0.031,0 0.0465,0.031 0.0465,0.0465 z m 0,0.94551 v 0.55799 c 0,0.031 -0.0155,0.0465 -0.0465,0.0465 -0.0155,0 -0.031,-0.0155 -0.031,-0.0465 v -0.55799 c 0,-0.0155 0.0155,-0.031 0.031,-0.031 0.031,0 0.0465,0.0155 0.0465,0.031 z m 0,0.961 v 0.558 c 0,0.0155 -0.0155,0.031 -0.0465,0.031 -0.0155,0 -0.031,-0.0155 -0.031,-0.031 v -0.558 c 0,-0.031 0.0155,-0.0465 0.031,-0.0465 0.031,0 0.0465,0.0155 0.0465,0.0465 z m 0.0775,0.93 v 0.031 -0.0155 l 0.2015,0.29449 -0.0155,-0.0155 0.1395,0.1085 c 0.0155,0 0.031,0.031 0.0155,0.0465 -0.0155,0.0155 -0.0465,0.031 -0.062,0.0155 l -0.1395,-0.093 c 0,-0.0155 0,-0.0155 -0.0155,-0.0155 l -0.2015,-0.2945 c 0,0 0,-0.0155 0,-0.0155 v -0.031 c -0.0155,-0.0155 0,-0.031 0.031,-0.0465 0.0155,0 0.031,0.0155 0.0465,0.031 z"
       style="fill:#000000;fill-opacity:1;fill-rule:nonzero;stroke:#000000;stroke-width:0.0155px;stroke-linecap:butt;stroke-linejoin:round;stroke-miterlimit:4;stroke-dasharray:none;stroke-opacity:1"
       inkscape:connector-curvature="0" />
    <path
       id="path6137"
       d="m 137.08968,111.42527 v 4.743 h 37.4945 v -4.743 z"
       style="fill:#00b0f0;fill-opacity:1;fill-rule:evenodd;stroke:none;stroke-width:0.26458332"
       inkscape:connector-curvature="0" />
    <path
       id="path6139"
       d="m 439.19433,46.280315 h 141.7115 V 28.354016 h -141.7115 z"
       clip-path="url(#clipEmfPath1-4)"
       style="fill:none;stroke:#0070c0;stroke-width:2.51905513px;stroke-linecap:round;stroke-linejoin:round;stroke-miterlimit:4;stroke-dasharray:none;stroke-opacity:1"
       inkscape:connector-curvature="0"
       transform="matrix(0.26458333,0,0,0.26458333,20.886185,103.92327)" />
    <text
       id="text6145"
       y="114.90711"
       x="147.79558"
       style="font-style:normal;font-variant:normal;font-weight:400;font-size:3.22460938px;line-height:125%;font-family:Arial;text-align:start;letter-spacing:0px;word-spacing:0px;text-anchor:start;fill:#000000;fill-opacity:1;stroke:none;stroke-width:0.26458332"
       xml:space="preserve"><tspan
         id="tspan6143"
         y="114.90711"
         x="147.79558"
         sodipodi:role="line"
         style="stroke-width:0.26458332"><tspan
           id="tspan6141"
           style="font-style:normal;font-variant:normal;font-weight:400;font-size:3.22460938px;font-family:Arial;fill:#000000;stroke-width:0.26458332"
           dy="0"
           dx="0">Convolution</tspan></tspan></text>
    <path
       id="path6147"
       d="m 137.08968,116.66427 v 4.743 h 37.4945 v -4.743 z"
       style="fill:#00b050;fill-opacity:1;fill-rule:evenodd;stroke:none;stroke-width:0.26458332"
       inkscape:connector-curvature="0" />
    <path
       id="path6149"
       d="m 439.19433,66.08126 h 141.7115 V 48.154961 h -141.7115 z"
       clip-path="url(#clipEmfPath1-4)"
       style="fill:none;stroke:#789440;stroke-width:2.51905513px;stroke-linecap:round;stroke-linejoin:round;stroke-miterlimit:4;stroke-dasharray:none;stroke-opacity:1"
       inkscape:connector-curvature="0"
       transform="matrix(0.26458333,0,0,0.26458333,20.886185,103.92327)" />
    <text
       id="text6155"
       y="120.14051"
       x="148.30898"
       style="font-style:normal;font-variant:normal;font-weight:400;font-size:3.22460938px;line-height:125%;font-family:Arial;text-align:start;letter-spacing:0px;word-spacing:0px;text-anchor:start;fill:#000000;fill-opacity:1;stroke:none;stroke-width:0.26458332"
       xml:space="preserve"><tspan
         id="tspan6153"
         y="120.14051"
         x="148.30898"
         sodipodi:role="line"
         style="stroke-width:0.26458332"><tspan
           id="tspan6151"
           style="font-style:normal;font-variant:normal;font-weight:400;font-size:3.22460938px;font-family:Arial;fill:#000000;stroke-width:0.26458332"
           dy="0"
           dx="0">BatchNorm</tspan></tspan></text>
    <path
       id="path6157"
       d="m 137.08968,119.03577 c -4.6965,2.1545 -9.672,3.6735 -14.7715,4.5105"
       style="fill:none;stroke:#000000;stroke-width:0.0775px;stroke-linecap:round;stroke-linejoin:round;stroke-miterlimit:4;stroke-dasharray:none;stroke-opacity:1"
       inkscape:connector-curvature="0" />
    <path
       id="path6159"
       d="m 120.93868,123.74777 1.953,0.6355 c -0.372,-0.527 -0.4805,-1.1935 -0.279,-1.8135 z"
       style="fill:#000000;fill-opacity:1;fill-rule:evenodd;stroke:none;stroke-width:0.26458332"
       inkscape:connector-curvature="0" />
    <path
       id="path6161"
       d="m 99.982685,114.78876 v 0.8215 h 12.709995 v -0.8215 z"
       style="fill:#00b0f0;fill-opacity:1;fill-rule:evenodd;stroke:none;stroke-width:0.26458332"
       inkscape:connector-curvature="0" />
    <path
       id="path6163"
       d="m 99.982685,115.61027 h 12.709995 v -0.8215 H 99.982685 Z"
       style="fill:none;stroke:#0070c0;stroke-width:0.24800001px;stroke-linecap:round;stroke-linejoin:round;stroke-miterlimit:4;stroke-dasharray:none;stroke-opacity:1"
       inkscape:connector-curvature="0" />
    <path
       id="path6165"
       d="m 99.982685,116.10626 v 0.8215 h 12.709995 v -0.8215 z"
       style="fill:#00b050;fill-opacity:1;fill-rule:evenodd;stroke:none;stroke-width:0.26458332"
       inkscape:connector-curvature="0" />
    <path
       id="path6167"
       d="m 99.982685,116.92777 h 12.709995 v -0.8215 H 99.982685 Z"
       style="fill:none;stroke:#789440;stroke-width:0.24800001px;stroke-linecap:round;stroke-linejoin:round;stroke-miterlimit:4;stroke-dasharray:none;stroke-opacity:1"
       inkscape:connector-curvature="0" />
    <path
       id="path6169"
       d="m 99.982685,117.43926 v 0.80601 h 12.709995 v -0.80601 z"
       style="fill:#ff0000;fill-opacity:1;fill-rule:evenodd;stroke:none;stroke-width:0.26458332"
       inkscape:connector-curvature="0" />
    <path
       id="path6171"
       d="m 99.982685,118.24527 h 12.709995 v -0.80601 H 99.982685 Z"
       style="fill:none;stroke:#c00000;stroke-width:0.24800001px;stroke-linecap:round;stroke-linejoin:round;stroke-miterlimit:4;stroke-dasharray:none;stroke-opacity:1"
       inkscape:connector-curvature="0" />
    <path
       id="path6173"
       d="m 99.982685,118.86527 v 0.806 h 12.709995 v -0.806 z"
       style="fill:#00b0f0;fill-opacity:1;fill-rule:evenodd;stroke:none;stroke-width:0.26458332"
       inkscape:connector-curvature="0" />
    <path
       id="path6175"
       d="m 99.982685,119.67126 h 12.709995 v -0.806 H 99.982685 Z"
       style="fill:none;stroke:#0070c0;stroke-width:0.24800001px;stroke-linecap:round;stroke-linejoin:round;stroke-miterlimit:4;stroke-dasharray:none;stroke-opacity:1"
       inkscape:connector-curvature="0" />
    <path
       id="path6177"
       d="m 99.982685,120.18277 v 0.82149 h 12.709995 v -0.82149 z"
       style="fill:#00b050;fill-opacity:1;fill-rule:evenodd;stroke:none;stroke-width:0.26458332"
       inkscape:connector-curvature="0" />
    <path
       id="path6179"
       d="m 99.982685,121.00426 h 12.709995 v -0.82149 H 99.982685 Z"
       style="fill:none;stroke:#789440;stroke-width:0.24800001px;stroke-linecap:round;stroke-linejoin:round;stroke-miterlimit:4;stroke-dasharray:none;stroke-opacity:1"
       inkscape:connector-curvature="0" />
    <path
       id="path6181"
       d="m 108.24418,122.02727 v 0.806 h 12.6945 v -0.806 z"
       style="fill:#f2f2f2;fill-opacity:1;fill-rule:evenodd;stroke:none;stroke-width:0.26458332"
       inkscape:connector-curvature="0" />
    <path
       id="path6183"
       d="m 108.24418,122.83326 h 12.6945 v -0.806 h -12.6945 z"
       style="fill:none;stroke:#000000;stroke-width:0.24800001px;stroke-linecap:round;stroke-linejoin:round;stroke-miterlimit:4;stroke-dasharray:none;stroke-opacity:1"
       inkscape:connector-curvature="0" />
    <path
       id="path6185"
       d="m 108.24418,123.34477 v 0.82149 h 12.6945 v -0.82149 z"
       style="fill:#ff0000;fill-opacity:1;fill-rule:evenodd;stroke:none;stroke-width:0.26458332"
       inkscape:connector-curvature="0" />
    <path
       id="path6187"
       d="m 108.24418,124.16626 h 12.6945 v -0.82149 h -12.6945 z"
       style="fill:none;stroke:#c00000;stroke-width:0.24800001px;stroke-linecap:round;stroke-linejoin:round;stroke-miterlimit:4;stroke-dasharray:none;stroke-opacity:1"
       inkscape:connector-curvature="0" />
    <text
       id="text6193"
       y="116.33065"
       x="118.82805"
       style="font-style:normal;font-variant:normal;font-weight:400;font-size:3.22460938px;line-height:125%;font-family:Arial;text-align:start;letter-spacing:0px;word-spacing:0px;text-anchor:start;fill:#000000;fill-opacity:1;stroke:none;stroke-width:0.26458332"
       xml:space="preserve"><tspan
         id="tspan6191"
         y="116.33065"
         x="118.82805"
         sodipodi:role="line"
         style="stroke-width:0.26458332"><tspan
           id="tspan6189"
           style="font-style:normal;font-variant:normal;font-weight:400;font-size:3.22460938px;font-family:Arial;fill:#000000;stroke-width:0.26458332"
           dy="0"
           dx="0">Residual </tspan></tspan></text>
    <text
       id="text6199"
       y="120.29859"
       x="120.88179"
       style="font-style:normal;font-variant:normal;font-weight:400;font-size:3.22460938px;line-height:125%;font-family:Arial;text-align:start;letter-spacing:0px;word-spacing:0px;text-anchor:start;fill:#000000;fill-opacity:1;stroke:none;stroke-width:0.26458332"
       xml:space="preserve"><tspan
         id="tspan6197"
         y="120.29859"
         x="120.88179"
         sodipodi:role="line"
         style="stroke-width:0.26458332"><tspan
           id="tspan6195"
           style="font-style:normal;font-variant:normal;font-weight:400;font-size:3.22460938px;font-family:Arial;fill:#000000;stroke-width:0.26458332"
           dy="0"
           dx="0">Block</tspan></tspan></text>
    <text
       id="text6213"
       y="107.57743"
       x="89.278915"
       style="font-style:normal;font-variant:normal;font-weight:400;font-size:3.96875px;line-height:125%;font-family:Calibri;text-align:start;letter-spacing:0px;word-spacing:0px;text-anchor:start;fill:#000000;fill-opacity:1;stroke:none;stroke-width:0.26458332"
       xml:space="preserve"><tspan
         id="tspan6211"
         y="107.57743"
         x="89.278915"
         sodipodi:role="line"
         style="stroke-width:0.26458332">resnet_layer()<tspan
   id="tspan6209"
   style="font-style:normal;font-variant:normal;font-weight:400;font-size:3.96875px;font-family:Calibri;fill:#000000;stroke-width:0.26458332" /></tspan></text>
    <path
       id="path6215"
       d="M 84.655352,109.23326 H 114.10535"
       style="fill:none;stroke:#000000;stroke-width:0.26350001px;stroke-linecap:butt;stroke-linejoin:miter;stroke-miterlimit:2;stroke-dasharray:none;stroke-opacity:1"
       inkscape:connector-curvature="0" />
  </g>
  <style
     id="style3859"
     type="text/css"><![CDATA[
		.st1 {fill:#ffffff;stroke:none;stroke-linecap:butt;stroke-width:0.75}
		.st2 {fill:#000000;stroke:#000000;stroke-linecap:butt;stroke-width:0.043937}
		.st3 {fill:#00b0f0;stroke:none;stroke-linecap:butt;stroke-width:0.75}
		.st4 {fill:none;stroke:#0070c0;stroke-linecap:round;stroke-linejoin:round;stroke-width:0.702992}
		.st5 {fill:#00b050;stroke:none;stroke-linecap:butt;stroke-width:0.75}
		.st6 {fill:none;stroke:#789440;stroke-linecap:round;stroke-linejoin:round;stroke-width:0.702992}
		.st7 {fill:#ff0000;stroke:none;stroke-linecap:butt;stroke-width:0.75}
		.st8 {fill:none;stroke:#c00000;stroke-linecap:round;stroke-linejoin:round;stroke-width:0.702992}
		.st9 {fill:#f2f2f2;stroke:none;stroke-linecap:butt;stroke-width:0.75}
		.st10 {fill:none;stroke:#000000;stroke-linecap:round;stroke-linejoin:round;stroke-width:0.702992}
		.st11 {fill:none;stroke:none;stroke-linecap:butt;stroke-width:0.75}
		.st12 {fill:#000000;font-family:Arial;font-size:0.761719em}
		.st13 {fill:#000000;stroke:none;stroke-linecap:butt;stroke-width:0.75}
		.st14 {fill:none}
		.st15 {stroke:#000000;stroke-linecap:round;stroke-linejoin:round;stroke-width:0.219685}
		.st16 {fill:#000000;font-family:Calibri;font-size:0.9375em}
		.st17 {stroke:#000000;stroke-linecap:butt;stroke-width:2}
		.st18 {fill:none;fill-rule:evenodd;font-size:12px;overflow:visible;stroke-linecap:square;stroke-miterlimit:3}
	]]></style>
</svg>
